<svg id="Layer_3_Image" data-name="Layer 3 Image" xmlns="http://www.w3.org/2000/svg" viewBox="0 0 295.13 232.75"><defs><style>.cls-1,.cls-2{fill:#fff;}.cls-2{stroke:#000;stroke-miterlimit:10;}</style></defs><title>thursday3pm</title><path d="M156.38,17.84l.2,0c2.69.33,5.39.64,8.08,1,5.31.69,10.64,1.28,15.93,2.12,7.33,1.17,14.24,3.82,21.12,6.49,4.36,1.69,8.68,3.49,13,5.31,3.39,1.44,6.87,2.75,10.17,4.37a40.72,40.72,0,0,1,5.77,3.62c1.44,1,2.69,1.68,4.6,1a6.7,6.7,0,0,1,5.58.46c1.48.79,3.1,1.3,4.58,2.07,5.06,2.62,7.84,7.11,9.79,12.18a8.79,8.79,0,0,0,3.15,4.17c9,6.58,16.42,14.73,23.76,22.93a53.6,53.6,0,0,1,10.29,15.91c1.68,4.27,3.9,8.33,5.6,12.59,2.27,5.68,3.23,11.67,4.23,17.7,1.09,6.6-.86,12.34-3.22,18.14a34.14,34.14,0,0,1-11.6,14.36,26.92,26.92,0,0,1-7.16,3.32c-5.85,2.07-11.91,3.13-18.09,1.88-8.85-2.36-10.86-5.56-13.26-6.63a.28.28,0,0,0-.35.4c1.31,2.24,6.07,5.23,5.61,14.19a85.45,85.45,0,0,1-3.23,10,3.8,3.8,0,0,1-.64,1.06,1.82,1.82,0,0,1-2.45.39,3.47,3.47,0,0,1-.41-.33c-1.85-1.75-3.61-3.57-5.45-5.32a6.58,6.58,0,0,0-2.14-1.39c-3.2-1.27-5.22-.61-5.42,2.9-.37,6.6-2.29,12.24-7.41,16.48-1.34,1.11-2.69,2.22-4.13,3.19a2.12,2.12,0,0,1-1.73.15c-2-1.87-18.68-6.94-18.68-6.95-1.11-.54,1.2,1.51,1.24,3.17a12,12,0,0,1-3.86,9.26,11,11,0,0,1-5.23,2.76,1.67,1.67,0,0,1-1.8-.83c-.93-1.72-1.82-3.44-2.88-5-1.17-1.79-2.05-1.78-4-.82-4.4,2.23-9.18,3.13-14,3.68-4.36.48-3.43.25-3.23,3.86.32,5.83.79,11.67.64,17.5a19.65,19.65,0,0,1-5.1,12.66c-3.2,3.66-7.22,5.43-11.67,7-6.78,2.38-13.63,1.88-20.53,1.46-6.08-.37-11.76-2.4-17.5-4.14-9.69-3-38.48-19.44-43.68-24.38-.2-.19-9.65-7.44-13.82-11.26a142.89,142.89,0,0,1-11.41-11.93c-5.7-6.59-11.57-13.1-16.62-20.18-4.06-5.71-12-19.41-13.29-22.86a13.69,13.69,0,0,0-.75-1.6,72.29,72.29,0,0,1-5.53-14.78C7,130.53,7,121.77,8.19,113a45.76,45.76,0,0,1,6.07-17.2c4.74-8,15.62-20.92,16.57-22.14a86.36,86.36,0,0,1,6.77-6.9c6.44-6,16.2-13.15,17.86-15.56a.57.57,0,0,0,.08-.13c2.11-3.88,5.69-5.84,9.73-7,1.22-.37,2.69.12,4,.18a2.69,2.69,0,0,0,1.34-.18c2.58-1.54,5-3.27,7.69-4.67,4.07-2.17,8.33-4,12.46-6,1.38-.68,2.77-1.33,4.2-1.9,4.2-1.68,8.43-3.31,12.7-4.83a160.19,160.19,0,0,1,20.72-5.55A201,201,0,0,1,149.27,18a1.19,1.19,0,0,0,.34-.13Z" transform="translate(-7.4 -17.84)"/><path d="M86,198.64c1-.87,1.75-1.64,2.62-2.27,6.69-4.89,14.35-5.08,22.16-4.5a7.29,7.29,0,0,1,1.57.48,21.2,21.2,0,0,0-3.43,3.19c-2.81,4.1-.48,10,3.86,12.45,1.06.61,1.32-.13,1.65-.91a20.43,20.43,0,0,1,7.36-9.1c.93-.65,1.91-1.32,3.31.27l-2.7,1.7a13.67,13.67,0,0,0,2.28,1.22c2.58.72,5.2,1.29,7.77,2,5.89,1.69,12,1.76,18,1.85,4.6.08,9.21-.05,13.82-.15a68.71,68.71,0,0,0,18.49-3.26c3-.91,3-1.08,1.17-4.34a7,7,0,0,1,2.23.47,18.54,18.54,0,0,1,7,8.61c.63,1.58,2,2,3.27.92a17.05,17.05,0,0,0,2.92-2.9,7.92,7.92,0,0,0-.79-10.34,15.46,15.46,0,0,0-2.72-1.65,4.62,4.62,0,0,1,5-.76c3.6,1.45,7.19,2.94,10.84,4.24,2.71,1,5.49,1.72,8.28,2.41,1,.25,2.52.47,3-.06,2.46-2.5,5.45-4.94,6.73-8,1.5-3.64,1.57-7.92,2-12,.21-2,.82-3.11,2.85-2.89a37.82,37.82,0,0,1,6.31,1.31,9.38,9.38,0,0,1,5.83,5.26,6.61,6.61,0,0,0,1.3,1.35,5.43,5.43,0,0,0,1.11-1.42,56.27,56.27,0,0,0,1.68-5.65c1.06-4.51,1-8.81-2.6-12.38a18.66,18.66,0,0,1-1.65-2.35c-1.08-1.47-.78-2.16,1-2.44a16,16,0,0,0,3.33-.65c4.8-1.84,7.83-5.65,10.76-9.8-.66-.12-1.12-.23-1.59-.28a18,18,0,0,1-11.63-6c-3.28-3.55-3.18-7.19-1.49-11.1,1.93-4.49,1.1-8.53-1.65-12.27a22.24,22.24,0,0,0-4-4.09c-2.17-1.76-4.6-3.22-6.79-5-1.84-1.47-2.88-3.4-2.08-5.87.74-2.26,1.42-4.55,2.35-6.73a27,27,0,0,1,5-7.34c-1.63-.76-2.9-1.69-4.28-1.92-5-.85-10.11-1.71-15,.5-1.8.82-2.32-.1-3-1.47-1.25-2.47-2.38-5.11-4.15-7.18-2.74-3.22-6-6-9-9C200,66.58,194.73,64,189.3,61.73a48.44,48.44,0,0,0-9.65-2.68c-4.63-.88-9.32-1.5-14-2-2-.21-4.25-.58-5.76,2.14l8.4,3.4a32.22,32.22,0,0,1-3,1.83c-4.08,1.88-4.9,3.34-4.54,8.67,2.19-1.56,4.21-3.1,6.34-4.49,4.48-2.91,9.32-3.1,14.28-1.56,2.16.67,4.22,1.64,6.36,2.41,1.2.44,2.39.71,3.37-.64.2-.28,1.32-.26,1.66,0a1.78,1.78,0,0,1,.09,1.65,2.16,2.16,0,0,1-1.39,1,36,36,0,0,1-5.82.69,39.44,39.44,0,0,1-5.16-.61,20.2,20.2,0,0,0-14.73,3.58A17,17,0,0,0,160,82.57a14.39,14.39,0,0,1-1.2,1.93,7.66,7.66,0,0,1-1.49-1.76c-.78-1.76-1.13-3.76-3.11-5a19.19,19.19,0,0,0-1.66,2.4c-.49,1-.67,2.18-1.18,3.18a2.32,2.32,0,0,1-1.46,1.06c-.24,0-.76-.75-1-1.24s-.13-1.26-.43-1.72c-3.9-6.09-9-10.25-16.69-9.91-2.4.11-4.79.23-7.18.38-1.49.09-3,.54-4.44.31a13.83,13.83,0,0,1-4.2-1.75c-.24-.13-.23-1.34.07-1.62a1.71,1.71,0,0,1,1.66-.08c1.1,1.5,2.41,1,3.71.57,2.18-.8,4.29-1.89,6.52-2.48,4.84-1.28,9.6-1.23,13.93,1.79,2,1.43,4,2.89,6.18,4.4.44-5.21-.45-6.71-4.16-8.49-1.18-.56-2.29-1.29-3.43-1.94l8.45-3.49c-1.57-2.66-3.81-2.3-5.73-2.11a108.19,108.19,0,0,0-13,1.89,112.46,112.46,0,0,0-13.51,4.12,41.2,41.2,0,0,0-7.08,3.84C102.81,71,96.94,76.16,93.07,83.28c-.89,1.64-1.65,3.37-2.33,4.78a39.41,39.41,0,0,0-5.68-1,45.55,45.55,0,0,0-6.26.51c-2.45.27-4.75,1-6.29,3a3.12,3.12,0,0,0-.57,2.49c1,2.47,2.24,4.85,3.45,7.23,1.77,3.49,1.71,6.92-.58,9a65.64,65.64,0,0,1-5.64,4.06c-2.06,1.52-4.14,3-6.09,4.68a5.56,5.56,0,0,0-1.49,2.42,25.59,25.59,0,0,0-1,12.61c.68,3.77.36,7.16-3,9.68a4.5,4.5,0,0,0-.8,1A11,11,0,0,1,49,148.29c-.62.06-1.23.19-2.17.34,1.49,1.71,2.78,3.11,4,4.59,2.92,3.6,6.51,5.75,11.3,5.43a2.15,2.15,0,0,1,.71.07c1.56.47,1.79,1.16.74,2.42-1.3,1.57-2.78,3-4,4.65a10.07,10.07,0,0,0-1.9,3.94c-.65,3.78.61,7.34,1.88,10.85a9.15,9.15,0,0,0,1,1.57,25.59,25.59,0,0,0,2.28-2.94,9,9,0,0,1,13.28-3.27,3.32,3.32,0,0,1,.88,2.22c.1,1.29-.41,2.71,0,3.88,1.24,4,2.62,7.93,4.2,11.79A9.65,9.65,0,0,0,86,198.64Z" transform="translate(-7.4 -17.84)"/><path d="M206.14,57.42l.86.63c-.62-.54-1.23-1.09-1.87-1.6a34.26,34.26,0,0,0-9.26-5.38c-4.63-1.74-9-4.35-13.7-5.69a93,93,0,0,0-24.58-3.71,106.28,106.28,0,0,0-25.49,2.84c-8.6,2-17.32,4.11-24.72,9.42-1.95,1.4-3.63,3.18-5.51,4.84,2.43,1.86,4.43,3.45,6.51,4.94.28.2,1,0,1.43-.24,1.86-.95,3.65-2.06,5.55-2.95,8.63-4.07,17.88-5.74,27.29-6.44,5.27-.39,10.58,0,15.86-.27,6.89-.29,13.66.75,20.34,2a57,57,0,0,1,20,7.65c.84.53,1.7,1.06,2.52,0C203,61.49,204.56,59.45,206.14,57.42Z" transform="translate(-7.4 -17.84)"/><path d="M112.18,215.2c-2.59-1.31-5-2.66-7.49-3.76-4.59-2-5.68-1.51-7.43,3.33-.7,1.92-1.19,3.92-1.77,5.89l-.5.11c-.37-.8-.79-1.59-1.11-2.42a15.14,15.14,0,0,1,.56-12.2c-2.46-1.28-4.84-2.5-7.21-3.74a1.39,1.39,0,0,0-2.25.87c-.43,1.19-.84,2.37-1.19,3.58-1.25,4.36-2.38,8.74-3.72,13.07-.95,3.1-.9,4.36,1.6,6.34a42.73,42.73,0,0,0,6.62,4.23c4.91,2.59,9.87,5.11,14.91,7.44,2.42,1.13,2.86.57,2.78-2.08-.16-5.62.25-11.14,3.48-16.05C110.35,218.47,111.1,217,112.18,215.2Z" transform="translate(-7.4 -17.84)"/><path d="M44.28,113.05c2.79-4.1,5.45-8,8.06-11.91.31-.47.65-1.26.47-1.66-1.47-3.18-4.07-5.43-6.69-7.61a5.84,5.84,0,0,0-2.63-1c-4.07-.7-8.15-1.3-12.22-2-4.63-.76-8.85-.15-11.48,4.22A78.3,78.3,0,0,0,14.72,103c-1,2.25-1.28,4.77-2,7.62C24.12,105.84,34.59,106.52,44.28,113.05Z" transform="translate(-7.4 -17.84)"/><path d="M116.64,25.71c6,4.86,8.28,11.19,7.14,18.84l.84.59a8.26,8.26,0,0,0,.62-1.6c.31-2.06.62-4.12.78-6.19.12-1.66,0-3.33,0-5.48A19.22,19.22,0,0,1,130,42.79c.9-.75,2-1.59,2-2.47a55.27,55.27,0,0,0-.33-8c-.22-2.13-.76-4.23-1.22-6.67,6.33,3.61,6.61,9.73,7.65,15.64,2.28-.35,4.56-.8,6.86-1,3-.29,5.94-.39,8.92-.58a2.86,2.86,0,0,0,1-.16c3-1.53,5.43-6.3,4.93-9.68a18.06,18.06,0,0,0-5.22-10,3.13,3.13,0,0,0-2.19-.83c-3.17.14-6.35.37-9.5.74-4,.45-7.91,1.07-11.82,1.62l-.34,4c-2.45-1.16-4.31-3.54-7.25-1.73a10.64,10.64,0,0,1,2.62,8,46.64,46.64,0,0,1-3.9-4.21C120.15,25,118.77,24.51,116.64,25.71Z" transform="translate(-7.4 -17.84)"/><path d="M275.47,141.49l.64-.06a12.91,12.91,0,0,0,.53-1.81A12.18,12.18,0,0,0,271.05,128a25.91,25.91,0,0,0-3.63-1.95c-2.21-.87-2.55-3-3.49-4.71-2.64-5-5.45-9.82-8.15-14.74S250.1,97,245.59,93.4c-2.09-1.63-3.44-1.54-5.16.55a23.83,23.83,0,0,0-4.78,10.51,3.69,3.69,0,0,0,1.48,3.93c1.55,1.21,3.26,2.2,4.83,3.38,2.94,2.24,6.13,4.36,7.67,7.85,1.38,3.12,2.31,6.46,1.5,9.85,5.21-1.61,10.35-3.32,15.84-1C272.67,130.89,274.7,135.75,275.47,141.49Z" transform="translate(-7.4 -17.84)"/><path d="M105,197c.2-1.53-.39-2-1.79-2.21-4.61-.56-8.58,1.37-12.49,3.3-2.58,1.27,1.24,4.6,2.81,4.83,3.11,1.92,6.13,4,9.34,5.72,3.4,1.84,7,3.31,10.44,5.08a84.34,84.34,0,0,0,19.52,7.59c1.93.45,4,.89,5.92-.24,3.07-1.79,3.39-4.88,3.32-7.84-.1-4.32-.64-5.87-5.22-5.94a6.93,6.93,0,0,1-.89-.1,39.47,39.47,0,0,1-13.12-3.47c-2.75-1.37-4.43-.91-5.61,2-.71,1.77-1.33,3.57-2,5.37" transform="translate(-7.4 -17.84)"/><path d="M183.11,22.63l-.34.46c3.2,2.61,3.69,6.41,4.27,10,.66,4.12-1.54,7.22-4.72,9.64,4.11,1.67,8,3.37,12,4.84,5,1.86,10,3.8,13.7,7.91.68.75,1.34.68,2.19.07,6-4.37,12.13-8.68,18.37-13.13a33.34,33.34,0,0,0-2.89-1.87c-1.54-.8-3.17-1.41-4.7-2.23-2-1.08-2.85-.67-2.92,1.6-.17,5.26-4.5,10.45-9.6,11.36a4.64,4.64,0,0,1-1.77-.26,58.53,58.53,0,0,0,2-5.73c.8-3.37,1.63-6.76.87-10.29-.47-2.2-1-2.67-3.51-2.88,0,.48,0,1,.07,1.42.21,3.55-.85,6.54-4,8.48a12.63,12.63,0,0,1-2.88.94,12.55,12.55,0,0,1,0-2.67c1-4.94-.42-9.23-3.23-13.2a2.12,2.12,0,0,0-.93-.78C191.1,25.08,187.1,23.86,183.11,22.63Z" transform="translate(-7.4 -17.84)"/><path d="M243.4,88.22a50.41,50.41,0,0,1,5.07,4.45c1.17,1.33,2.36,2.06,4,1.63,2.42-.62,4.8-1.36,7.18-2.12,5.31-1.7,9.45-4.7,10.58-10.52a10.86,10.86,0,0,0-2.88-9.45A104,104,0,0,0,259.76,65a11,11,0,0,0-1.71-1.25c-.93-.55-1.54-.06-1.73.82-.34,1.57-.59,3.16-.79,4.75-.9,7.06-3.59,13.07-9.81,17.08C244.9,86.93,244.17,87.61,243.4,88.22Z" transform="translate(-7.4 -17.84)"/><path d="M285.32,94.39l-.58.34a16.36,16.36,0,0,1-1.51,3.93,35.1,35.1,0,0,1-4.56,5.18,29.15,29.15,0,0,1-13.33,7.37,22.72,22.72,0,0,0-3.15,1.21,19.48,19.48,0,0,0,1.56,3c.86,1.09,1.75,2.48,2.94,2.91a22.89,22.89,0,0,0,7.62,1.75,20.05,20.05,0,0,0,16-7.11c1.12-1.3,2.25-2.73,1.62-4.66a79.77,79.77,0,0,0-3-8.63C288.11,97.78,286.57,96.15,285.32,94.39Z" transform="translate(-7.4 -17.84)"/><path d="M223.5,68.48c3.58-.58,7.25-.72,9.91-3.4,3.88-3.89,5.5-8.5,3.92-14a6.22,6.22,0,0,0-9.4-3.63c-3,2-6.06,3.85-8.92,6-2.21,1.66-5.14,2.51-6.39,5.3-.19.43-.42,1.1-.23,1.42A17.11,17.11,0,0,0,221,67.9,18.39,18.39,0,0,0,223.5,68.48Z" transform="translate(-7.4 -17.84)"/><path d="M96.1,59.7a32.87,32.87,0,0,0-2.89-2.27,101.76,101.76,0,0,0-19-8.9,4.77,4.77,0,0,0-5.29.91,5.85,5.85,0,0,0-1.47,6.12c1.69,5.56,5.34,9.18,10.69,11.55C84.83,70.05,93.45,66.76,96.1,59.7Z" transform="translate(-7.4 -17.84)"/><path d="M124,228.76l.92-.07a9.41,9.41,0,0,1,1.06,2.73c.27,4.64-.78,8.78-4.93,11.59a1.93,1.93,0,0,0-.88,1.39c0,.41.72.9,1.22,1.08a36,36,0,0,0,13,2.38c4.75-.06,5.91,1.07,3.64-5.3-2.09-5.86-4.07-11.69-1.62-18.1-2.16-.43-4.14-.76-6.1-1.21s-4-1.13-6.07-1.57c-1.88-.4-2.86.42-3,2.31,0,.59,0,1.2,0,1.79-.38,2.7-.45,5.51-1.29,8.06-.78,2.35-2.41,4.41-3.75,6.76.37,0,1.09.22,1.48,0C121.75,237.79,125.33,234.66,124,228.76Z" transform="translate(-7.4 -17.84)"/><path d="M68.47,182a14.68,14.68,0,0,1-7,8.4A28,28,0,0,0,53.07,197c-1.64,2-1.86,3.32.1,5.05,2.55,2.25,5.24,4.34,7.9,6.47.9.72,1.7.45,1.8-.67.25-3,2.52-4.09,4.77-5.28a58.38,58.38,0,0,0,7.77-4.38c3.82-2.83,3.16-3.68,1-6.51-2-2.64-4-5.32-6.07-7.95A16.28,16.28,0,0,0,68.47,182Z" transform="translate(-7.4 -17.84)"/><path d="M159.69,209.8c1.27,1.91,1.32,3.92-.15,5.5-3.22,3.47-7.7,5.44-12.64,3.4-1.56-.65-2.27-.21-2.27,1.48a5.45,5.45,0,0,0,.41,2.27,10.24,10.24,0,0,0,11,5.33c1.62-.38,3.17-1.12,4.8-1.41,3.78-.66,6.18-5.54,5.9-9.05-.17-2.14-.29-4.3-.44-6.44-.17-2.3-.37-2.58-2.68-2.64-5.27-.14-10.53-.18-15.8-.22a5.32,5.32,0,0,0-1.74.37c-1.69.58-2,1.52-.93,2.94a6.77,6.77,0,0,0,5.74,2.77A10.53,10.53,0,0,0,159.69,209.8Z" transform="translate(-7.4 -17.84)"/><path d="M101.39,54.81l-.4-.15c0-.42,0-.84,0-1.26a3.47,3.47,0,0,0-.14-.7C98.93,46,94.39,41.84,88.09,39.35a1.44,1.44,0,0,0-.86-.11c-2.58.67-5.37.79-7.31,3a16.29,16.29,0,0,1-2.38,2.16c-1.71,1.34-1.66,2.19.27,3.23a9.64,9.64,0,0,0,1.67.65,65.79,65.79,0,0,1,18,8.3,3.42,3.42,0,0,0,2.71.64C100.82,57,101,55.67,101.39,54.81Z" transform="translate(-7.4 -17.84)"/><path d="M253.36,97.67c1.41,2.46,6.11,5,8.93,4.3,5.11-1.25,10.43-2.08,14.32-6.36a15.53,15.53,0,0,0,3.93-7.5,2.86,2.86,0,0,0-.32-2c-1.44-1.89-3-3.67-4.6-5.46a1,1,0,0,0-.9-.33,1,1,0,0,0-.43.85,5.1,5.1,0,0,1-1.2,4.53c-2.16,2.89-4.08,6-7.52,7.73A44.06,44.06,0,0,1,253.36,97.67Z" transform="translate(-7.4 -17.84)"/><path d="M148.05,247a27.05,27.05,0,0,0,12.41-5c1.19-.91,1-2.14-.32-2.82a17.18,17.18,0,0,0-4-1.57c-6.39-1.4-11-5.22-14.81-10.32-.86-1.16-2-1.23-2.39.11a9.29,9.29,0,0,0-.41,4.81c1.46,4.93,4.48,9.08,7.44,13.2A8.45,8.45,0,0,0,148.05,247Z" transform="translate(-7.4 -17.84)"/><path d="M102.56,43.83a7.66,7.66,0,0,0,0,2.67,10.73,10.73,0,0,0,2.45,4.16c1.33,1.12,2-.92,3-1.48a1.93,1.93,0,0,0,.28-.22c2.15-1.63,3.26-3.88,2.51-6.42a31.51,31.51,0,0,0-3.54-8.15c-1.1-1.7-3.11-2.93-5-3.95-.71-.4-2.17.15-3,.67-.28.17,0,1.75.4,2.5C101.35,36.84,103,40,102.56,43.83Z" transform="translate(-7.4 -17.84)"/><path d="M116.93,223.59a2.93,2.93,0,0,0,0-.89c-.33-1-.44-2.31-1.12-2.74-1.27-.8-2,.58-2.67,1.45-3.25,4.51-3.95,9.67-3.6,15a2.4,2.4,0,0,0,1.09,1.82c.44.17,1.38-.46,1.82-1C115.89,233.38,116.62,228.55,116.93,223.59Z" transform="translate(-7.4 -17.84)"/><path d="M69.36,209.82l.43.24c-.08,1.56.83,2,2.87,1.45a17.14,17.14,0,0,0,8.24-5.77,13.33,13.33,0,0,0,2.43-4.27c.58-1.71-.39-2.59-2.13-2.19-3.75.86-6.66,3.16-9.18,5.87C70.83,206.42,70.23,208.24,69.36,209.82Z" transform="translate(-7.4 -17.84)"/><path d="M144.93,226.92c.14.56.12.84.25,1,1.35,1.21,2.67,2.45,4.1,3.57a20.44,20.44,0,0,0,12.31,4.27,5.94,5.94,0,0,0,5.87-6.87c-.17-.94-.61-1.4-1.63-.84s-2.11,1.1-3.19,1.59c-5,2.25-9.89,2.45-14.59-.82C147.15,228.16,146.17,227.65,144.93,226.92Z" transform="translate(-7.4 -17.84)"/><path d="M21.41,129.92c1.13.35,2,.61,2.91.92A16.11,16.11,0,0,1,28,132.26c3.46,2.33,6.76,1,10.07-.22,1.06-.4,1.09-1.13.3-1.94C33.78,125.42,25.87,125.81,21.41,129.92Z" transform="translate(-7.4 -17.84)"/><path d="M161.93,19.5c2.27,3.25,2.78,6.75,3,10.38S165,37.06,162.33,40c2,.5,3.24.44,4.35-1.64,2.71-5.07,2.34-10.18.95-15.36C166.82,19.94,165.61,19.31,161.93,19.5Z" transform="translate(-7.4 -17.84)"/><path d="M175.38,38.9c3.65-1.39,5.55-3.74,5.58-7.07,0-2.47-2.86-6.23-5.72-7.4.47,2.45,1.27,4.85,1.29,7.25S175.8,36.47,175.38,38.9Z" transform="translate(-7.4 -17.84)"/><path d="M50.27,88.94a1.44,1.44,0,0,0-.17-.45c-3.25-4.86-7.5-5.55-12.37-3.56-.26.1-.44,1.23-.2,1.53a2.86,2.86,0,0,0,1.7.88C42.91,87.92,46.6,88.42,50.27,88.94Z" transform="translate(-7.4 -17.84)"/><path d="M75.65,185.6c.07-.14.24-.31.21-.45-.17-1.05-.44-2.09-.59-3.14-.78-5.68-2-5.53-7-5.23a1.11,1.11,0,0,0-.16.07C68,178.8,73.62,185.37,75.65,185.6Z" transform="translate(-7.4 -17.84)"/><path d="M263.48,103.57c-2.38,0-3.32.84-3.32,3,0,1.62,1.86,3,4,2.93,1.67,0,3.29-1.24,3.29-2.44A3.8,3.8,0,0,0,263.48,103.57Z" transform="translate(-7.4 -17.84)"/><path d="M78.39,215.81c0-1.92-1-2.75-3.43-2.65-1.85.07-1.63,1.62-1.71,2.81a2.24,2.24,0,0,0,2.59,2.47A2.44,2.44,0,0,0,78.39,215.81Z" transform="translate(-7.4 -17.84)"/><path d="M118,43.39a2.48,2.48,0,0,0,2.32-2.47,2.58,2.58,0,0,0-2.83-2.33,2.3,2.3,0,0,0-2.2,2.53A2.53,2.53,0,0,0,118,43.39Z" transform="translate(-7.4 -17.84)"/><path d="M56.21,95.08l.57.17c.47-1.14,1.51-2.42,1.27-3.39-.52-2.16-2.35-3.48-4.4-4.81Z" transform="translate(-7.4 -17.84)"/><path d="M156.13,72.65l-1.28-4.78h-1l-1.22,4.77Z" transform="translate(-7.4 -17.84)"/><path d="M60,161l-4.52-.58L58,163.63Z" transform="translate(-7.4 -17.84)"/><path class="cls-1" d="M84.64,198c-4.26,2.06-5.92-22.26-13.58-24.57-2.87-.86-8.65,2.46-10.35,7a1,1,0,0,1-1.72.11c-1.41-2.64-1-8-.36-11,.32-1.5,3.37-7,4.67-8.55,1-1.26.82-1.95-.74-2.42-.22-.06-9.08-1.9-12-5.5-1.14-1.41-2.37-2.75-3.77-4.35a.18.18,0,0,1,.11-.29c.76-.13,1.3-.24,1.85-.29,3.3-.34,14.85-7,11.62-15.18-1.6-4,1.45-17.44,14.22-23.77,2.77-1.37,2.34-5.51.57-9C74,97.83,72.71,95.45,71.72,93a3.08,3.08,0,0,1,.56-2.49c1.54-2,3.84-2.77,6.29-3a45.82,45.82,0,0,1,6.27-.51,38.7,38.7,0,0,1,5.55,1,.15.15,0,0,0,.17-.08c.67-1.39,1.41-3.07,2.29-4.67,3.86-7.12,9.73-12.24,16.53-16.39a40.83,40.83,0,0,1,7.08-3.84A111.76,111.76,0,0,1,130,58.8a108.48,108.48,0,0,1,13-1.89c1.88-.19,4.06-.53,5.63,1.94a.16.16,0,0,1-.07.24l-8,3.29a.17.17,0,0,0,0,.3c1,.6,2.05,1.26,3.14,1.78,3.63,1.74,4.55,3.21,4.18,8.18a.18.18,0,0,1-.27.13c-2-1.45-4-2.85-5.94-4.23-4.32-3-9.08-3.07-13.92-1.79-2.24.59-4.34,1.68-6.53,2.48-1.3.48-2.61.93-3.71-.57-.2-.27-1.33-.23-1.65.08s-.31,1.49-.08,1.62a13.88,13.88,0,0,0,4.21,1.75c1.42.23,2.95-.22,4.43-.31,2.4-.15,4.79-.27,7.18-.38,7.72-.34,12.79,3.83,16.7,9.91.3.47.18,1.18.42,1.72s.74,1.29,1,1.24a2.3,2.3,0,0,0,1.45-1.06c.51-1,.69-2.16,1.18-3.18a17.17,17.17,0,0,1,1.57-2.27.19.19,0,0,1,.24,0c1.85,1.21,2.2,3.15,3,4.87a6.57,6.57,0,0,0,1.35,1.61.15.15,0,0,0,.25,0,10.46,10.46,0,0,0,1.09-1.76,17,17,0,0,1,5.74-7.39,20.21,20.21,0,0,1,14.74-3.58,39.44,39.44,0,0,0,5.16.61,35.7,35.7,0,0,0,5.81-.69,2.16,2.16,0,0,0,1.4-1,1.78,1.78,0,0,0-.1-1.65,1.7,1.7,0,0,0-1.66,0c-1,1.35-2.16,1.08-3.37.65-2.13-.78-4.2-1.75-6.36-2.42-5-1.54-9.8-1.35-14.27,1.56-2.05,1.34-4,2.82-6.1,4.31a.17.17,0,0,1-.27-.13c-.3-5.07.56-6.52,4.57-8.36a26,26,0,0,0,2.77-1.66.16.16,0,0,0,0-.29l-7.92-3.2a.18.18,0,0,1-.09-.25c1.51-2.54,3.74-2.17,5.66-2,4.69.5,9.38,1.12,14,2a48.34,48.34,0,0,1,9.64,2.68c5.43,2.24,10.71,4.85,15,9.12,3,3,6.26,5.77,9,9,1.76,2.07,2.89,4.71,4.14,7.18.7,1.37,1.21,2.29,3,1.47,4.91-2.21,10-1.35,15-.5a17.73,17.73,0,0,1,4.08,1.82.18.18,0,0,1,.06.27,28,28,0,0,0-2.14,2.58,30.2,30.2,0,0,0-2.68,4.59c-.94,2.18-1.61,4.47-2.35,6.73-.8,2.47.23,4.4,2.07,5.87,2.19,1.75,4.62,3.21,6.8,5a22.56,22.56,0,0,1,4,4.09c2.75,3.74,3.58,7.78,1.64,12.27-1.69,3.91-1.79,7.55,1.5,11.1a18,18,0,0,0,11.62,6c.47.05.94.16,1.6.28-2.94,4.15-6,8-10.76,9.8a16,16,0,0,1-3.33.65c-1.83.28-2.13,1-1.05,2.44,9.18,8.39,4.16,19.7,2.6,22.33,0,.08-3.47-5.95-14.57-8.45-2-.21-2.64.88-2.85,2.89-.43,4-.5,8.31-2,12a17.14,17.14,0,0,1-6.72,8c-.94,1.92-8.61-1.39-11.31-2.35-3.66-1.3-7.24-2.79-10.84-4.24a4.59,4.59,0,0,0-4.75.6.18.18,0,0,0,0,.29,12.32,12.32,0,0,1,2.49,1.52,7.92,7.92,0,0,1,.8,10.34,16.82,16.82,0,0,1-2.76,2.77,2.11,2.11,0,0,1-3.49-.94,18.61,18.61,0,0,0-7-8.46,6.89,6.89,0,0,0-2.22-.47c1.79,3.26,1.85,3.43-1.18,4.34A68.71,68.71,0,0,1,164,204.77c-4.6.1-9.21.23-13.82.16-6-.1-12.09-.17-18-1.86-2.53-.72-8.75-2.6-10-3.21a.18.18,0,0,1-.09-.12c-.13-.83.45-1.28,1.16-1.62a.28.28,0,0,0-.11-.52c-4.51-.41-8.4,8.58-9.5,9.47-3.25,2.61-8.21-7.57-5.41-11.66.5-1.23,1.29-3.65.58-3.66C93,191.53,88.25,196.29,84.64,198Z" transform="translate(-7.4 -17.84)"/><path class="cls-1" d="M133.13,189.14c0-4-1.46-8.06,1.2-11.9,1,2.87,2.12,5.33,5.2,5.9,2.69-3.47,3.59-5.13,5.29-4.89.72,4.15,1.09,4.87,4.24,5.12a69,69,0,0,0,10.66,0c3-.24,3.72-1.24,4.05-4.27,0-.32.13-.64.24-1.16,2.66,1,3.6,3.39,5.22,5.21,3.06-.68,4.16-3.12,5-6.16,2.82,4,1.36,8.08,1.36,12.17,1.4-.86,2.53-1.61,3.72-2.26,3.34-1.81,5.83-6.4,5.2-10.09-.25-1.45.28-1.75,1.48-2.23a16.57,16.57,0,0,0,5.18-3,6.15,6.15,0,0,0,.79-8.33c-1.17-1.55-2.63-1.71-4-.46a11.34,11.34,0,0,1,1.68,3.1,4.87,4.87,0,0,1-.51,3.45,7.36,7.36,0,0,1-3.36,2.25,32.33,32.33,0,0,1-12.87,1.44c-4.53-.25-8.91-.83-12.89-3.19-2.5-1.49-4.39-3.44-4.24-6.55s.56-6.2.84-9.31a3.56,3.56,0,0,1,2.46-3.2c1.45-.56,2.91-1.09,4.39-1.57,1.67-.54,3.56-2.8,3.52-4.38-.06-2.06-1.6-2.93-3.21-3.42a7.2,7.2,0,0,0-4-.25,16.43,16.43,0,0,1-10.66,0,7.8,7.8,0,0,0-4.38.33c-1.53.48-3,1.42-3,3.41,0,1.42,1.81,3.7,3.27,4.21s2.8,1,4.22,1.5a3.9,3.9,0,0,1,2.94,3.8c.21,2.75.63,5.49.72,8.24a9.15,9.15,0,0,1-.76,3.77c-1.26,3-4.25,4-6.89,5-5.11,1.9-10.55,2-15.94,1.53-3.25-.3-6.53-.68-9.18-3-1.47-1.31-1.88-2.9-.81-4.59.53-.83,1.09-1.65,1.66-2.49-2.35-1.14-3.8-.7-4.78,1.32a5.75,5.75,0,0,0,.08,5.68,8.93,8.93,0,0,0,6.58,4.78c1.08.17,1.63.59,1.37,2a7.72,7.72,0,0,0,1.07,6C127.26,185.49,130,187.33,133.13,189.14Z" transform="translate(-7.4 -17.84)"/><path class="cls-1" d="M226.35,94.71a4.59,4.59,0,0,0-1.17.16,8.15,8.15,0,0,0-1.69,12.45c2,2.29,2.2,5.94.25,7.29-2.85,2-5.88,3.64-9.55,3.65A2,2,0,0,1,212,116.8a22.37,22.37,0,0,0-7-9.84,17.81,17.81,0,0,0-7.44-3.73c-4.45-.91-9.05-1.36-13.63-.1-5.69,1.56-11.09,3.56-13.52,9.5a28,28,0,0,0-1.85,8.15,21.8,21.8,0,0,0,.64,7.46,4.34,4.34,0,0,1-1.35,4.89,13,13,0,0,0-2.7,4.51c-.62,1.54.25,2.53,1.91,2.7a3.65,3.65,0,0,0,4.4-3.4,13.7,13.7,0,0,1,.77-2.29l1.72,1.32c.24.18.45.4.69.57,8.74,6,17.9,7.75,27.55,2.32,4.82-2.72,8.67-6.47,10.2-12a8.22,8.22,0,0,1,2.94-4.69c4.48-3.34,6.84-4.57,11.89-2.14a4.39,4.39,0,0,1,2,2.49c1.26,4.29,2.92,5.94,7.32,6.49,1.31.16,2.88.49,3.86-1.32l-3.9-.94a4.27,4.27,0,0,1-3.69-4.53c0-.6,0-1.2-.08-1.79-.2-2.53-1.55-4-4.09-4.14-1.58-.1-1.84-.68-1.17-2.06,1.52-3.15,1.35-6.12-1.09-8.82a6.64,6.64,0,0,1-1.07-8.07C225.65,96.57,225.93,95.75,226.35,94.71Z" transform="translate(-7.4 -17.84)"/><path class="cls-1" d="M68.17,127.67a7.44,7.44,0,0,0,1.11,1c3.43,1.81,9.54-1.4,10-5.25.18-1.55.45-3.12,2.16-3.61,2.85-.82,5.73-1.81,8.61.06s5.58,3.27,6.37,7c1,4.88,4.54,8.15,8.33,10.91a26.34,26.34,0,0,0,7.87,3.72,20.8,20.8,0,0,0,7.14.52c6-.41,11.44-2.38,15.75-6.8,1-1,1.42-.58,1.69.49.13.52.13,1.07.22,1.6.23,1.41.94,2.65,2.34,2.88a6.48,6.48,0,0,0,3.55-.53c.39-.17.55-1.78.21-2.42a22.09,22.09,0,0,0-3.17-4.65,3.31,3.31,0,0,1-.91-3.55,24.89,24.89,0,0,0,.27-12.79c-1.28-5.92-5.2-9.51-10.76-11.77a28.5,28.5,0,0,0-18.09-1.1c-6.91,1.77-11.43,6.66-14,13.28-.44,1.13-.87,1.67-2.24,1.66-3.69,0-6.71-1.67-9.56-3.64C83,113.19,83,109.29,85,108c2.24-1.47,2.62-3.63,2.75-5.91.17-3.12-2.17-6.1-4.92-6.5a4,4,0,0,0,.1.52c.18.44.37.88.59,1.31,2.43,4.81,2.48,4.87-1.35,8.55a6.31,6.31,0,0,0-1.67,6.73,28.81,28.81,0,0,0,1.27,3.19,16.26,16.26,0,0,1-1.78.4,4.14,4.14,0,0,0-3.89,4C76,121,76,121.8,76,122.58a4.2,4.2,0,0,1-3.75,4.3C71,127.09,69.8,127.35,68.17,127.67Z" transform="translate(-7.4 -17.84)"/><path class="cls-1" d="M73.14,161.33c2.19-2.92,4.48-5.76,6.68-8.68a6.7,6.7,0,0,0,.53-2,10.65,10.65,0,0,0-1.36.57c-3.46,2.29-7.38-1-7.74-3.9a9.69,9.69,0,0,1,6-10.23c3.45-1.42,4-5.43,1.11-8.2a3.53,3.53,0,0,0-.33,1.18c.27,2.73-1.16,4.08-3.54,5.12-4.18,1.83-5.84,5.47-6.09,9.82-.16,2.82-.75,3.21-3.24,1.77-1.85-1.07-3.67-.87-5.82-.26,2,1.23,3.7,2.25,5.36,3.38,1.47,1,2.84,2.15,4.28,3.2,1,.71,2,1.33,3,2s1.29,1.6.28,2.65c-3.34,3.51-4.13,8-4.53,12.26,2.61-1.4,5.26-3,8-4.27" transform="translate(-7.4 -17.84)"/><path class="cls-1" d="M83.52,163.76" transform="translate(-7.4 -17.84)"/><path class="cls-1" d="M92,178.88" transform="translate(-7.4 -17.84)"/><path class="cls-1" d="M83.57,178.64a9.24,9.24,0,0,0,8.11,3.43,67.2,67.2,0,0,0,6.68-1.17c1.17-.19,2.33-.55,2.29,1.55a3.69,3.69,0,0,0,1.78,2.87,5.58,5.58,0,0,0,3.85-.18c1.24-.49,1.12-1.88.62-3a19.64,19.64,0,0,0-1.44-2.3,3.23,3.23,0,0,1,3.28-1.64,3.93,3.93,0,0,1,3.85,3.2,37.08,37.08,0,0,1,.32,5.54,5.15,5.15,0,0,0,2.91-6c-1.18-4.88-4.93-6.49-9.56-6.33" transform="translate(-7.4 -17.84)"/><path class="cls-1" d="M174.33,142.7a7.88,7.88,0,0,0,.6,1.69c1.37,1.81,2.77,3.61,4.19,5.37,3.75,4.64,8.81,6.09,14.45,5.38,3.74-.47,6.19,1,8.25,3.82a8.51,8.51,0,0,0,2.23,2,21.27,21.27,0,0,0,10.86,3.77c6.11.22,10.27-3.78,9.66-9.83-.3-3.06-3.64-5.6-6.6-4.83-1.26.33-2.78.8-2.77,2.56a25.58,25.58,0,0,1,3.62,1c1.59.68,2,2.11,1.87,3.73-.07,1.39-.28,2.76-1.84,3.16-3.08.77-6.32,1.19-9.07-.62a49.63,49.63,0,0,1-8.51-6.82c-4.74-4.91-10.32-7.66-17.12-7.62a15,15,0,0,1-7.68-2A16.17,16.17,0,0,0,174.33,142.7Z" transform="translate(-7.4 -17.84)"/><path class="cls-1" d="M93.89,152.63A6.9,6.9,0,0,0,92.56,151c-1.83-1.12-6-.05-7.07,1.84-2.31,4-1.38,7.67,2.08,10.25a9.09,9.09,0,0,0,7.15,1.48c4.72-.67,9.11-2.16,12.22-5.82a9.74,9.74,0,0,1,9.8-3.59,12.24,12.24,0,0,0,6.3-.81c4.78-2,7.59-6.07,10-11.08-.85.37-1.25.57-1.67.71-1.53.52-3.07,1.47-4.58,1.44a28.69,28.69,0,0,0-13.34,2.75c-4.28,2-7.49,5.19-10.38,8.66-2.27,2.72-8,5.15-11.38,4.05a4.89,4.89,0,0,1-3.32-4.1c0-2,1.56-2.71,3-3.49A11,11,0,0,1,93.89,152.63Z" transform="translate(-7.4 -17.84)"/><path class="cls-1" d="M168.56,81a29.27,29.27,0,0,1,4.8-1.88c7.12-1.38,14.17-1.24,21,1.52a9,9,0,0,1,3,1.63c3.07,3,6,6.12,9,9.2,2.17,2.23,4.34,4.46,7.64,5,1.39.23,2.76.13,3.39-1.23s-.53-2.39-1.63-3a14.34,14.34,0,0,0-3.5-1.26c-5.35-1.23-8.4-4.24-7.78-10.13a36.39,36.39,0,0,0,.19-4.3c0-.89-.29-1.66-1.54-1.35a33.15,33.15,0,0,1-15.25.12c-5.28-1.13-10.42-.86-15.28,1.74C170.89,78,169.3,79,168.56,81Z" transform="translate(-7.4 -17.84)"/><path class="cls-1" d="M140,81.11c-.55-2.11-2.21-3.14-3.92-4a21.39,21.39,0,0,0-14.94-1.75,34.25,34.25,0,0,1-15.6-.09c-1.13-.28-1.43.45-1.45,1.27,0,1.37.17,2.76.1,4.13a19,19,0,0,1-.57,5.24c-1.16,3.39-4.24,4.33-7.38,5.21a12.85,12.85,0,0,0-4.5,2.35c-1.17,1-.65,2.41.84,2.88a6.51,6.51,0,0,0,6.45-1.72c3.38-3,6.44-6.35,9.73-9.46,1.62-1.54,3.24-3.31,5.21-4.23a31.22,31.22,0,0,1,16.5-2.44C133.76,78.77,137.2,78.9,140,81.11Z" transform="translate(-7.4 -17.84)"/><path class="cls-1" d="M88.53,126.75l-.66.19c-.41,1.42-.75,2.86-1.24,4.24a22.41,22.41,0,0,1-1.76,4.11A15.09,15.09,0,0,0,82.8,143c0,2.06.4,3,2.39,3.34,3.55.64,7.08.85,10.57-.59a12.34,12.34,0,0,1,8.08-.82c2,.52,4,1.1,5.91,1.65.1-2.21-1.4-3.72-4.06-4.58-3-1-5.92-2.16-8.84-3.37a10.62,10.62,0,0,1-6.72-8.56,6.34,6.34,0,0,0-.52-1.72A13.4,13.4,0,0,0,88.53,126.75Z" transform="translate(-7.4 -17.84)"/><path class="cls-1" d="M199.13,146.71c.05,0,.12.06.17,0,.21-.09.42-.21.64-.31,4.39-2.05,8.89-2.95,13.48-.72,3.23,1.57,6.53,1.1,9.85.67,1.26-.17,2.64-.66,2.67-2.21a17.52,17.52,0,0,0-.45-5.85c-1.16-3.44-2.81-6.71-4.27-10a13.75,13.75,0,0,0-.78-1.34l-.61-.13c-.3.76-.64,1.51-.9,2.28a36.28,36.28,0,0,1-1.64,5c-1.29,2.58-3.79,3.9-6.3,5a79.17,79.17,0,0,1-8.06,2.94C200.28,142.86,198.71,144.63,199.13,146.71Z" transform="translate(-7.4 -17.84)"/><path class="cls-1" d="M166.11,89a13.47,13.47,0,0,0,2.61.85c3,.32,5.94.59,8.92.75,2.67.14,5.37.2,7.88-1.05,1.72-.86,3.08-3.2,2.64-4.65s-3.12-3.29-4.66-3.19c-1.07.06-2.14.06-3.21.18C174.8,82.52,169.47,83.5,166.11,89Z" transform="translate(-7.4 -17.84)"/><path class="cls-1" d="M142.71,88.91c-2.37-3.15-5-5.44-8.86-6-2.89-.41-5.78-.85-8.68-1.2-1.37-.16-3.94,1.52-4.43,3A3.24,3.24,0,0,0,122,88.52c1.27.88,2.83,1.88,4.26,1.89,4.78,0,9.56-.31,14.34-.6A7.8,7.8,0,0,0,142.71,88.91Z" transform="translate(-7.4 -17.84)"/><path class="cls-1" d="M134.35,103.42a8.22,8.22,0,0,0-.78-1.51c-4.18-4.24-9.45-6.11-15.19-7a1.65,1.65,0,0,0-.54,0c-2.34.47-4.68.92-7,1.41-1.84.38-3.18-.63-3.2-2.37a18.9,18.9,0,0,0-.29-2.23c-.65.52-1.33,1-1.93,1.56a5.57,5.57,0,0,0-.68,1,11.42,11.42,0,0,1-2,2.79c-2,1.49-4.17,2.75-6.3,4-1.12.68-1.36,1.53-.52,2.26,1.92,1.68,5.67,1.28,6.71-1,1.47-3.19,4-3.48,7-3.34a17.17,17.17,0,0,0,4.41-.33,17,17,0,0,1,10.08.45C127.33,100.62,130.58,101.92,134.35,103.42Z" transform="translate(-7.4 -17.84)"/><path class="cls-1" d="M174.49,103.25a6.49,6.49,0,0,0,1-.19c3.1-1.24,6.19-2.52,9.29-3.75a17,17,0,0,1,9.56-.53,21.36,21.36,0,0,0,5.29.35c3-.21,4.92.54,6.23,2.89,1.49,2.69,4,3.35,6.64,1.72,1.21-.76,1.18-1.74-.07-2.44a32.51,32.51,0,0,1-4.2-2.38A32.76,32.76,0,0,1,204.16,95c-.65-.73-1-1.75-1.55-2.55-.24-.33-.83-.41-1.26-.6a4.4,4.4,0,0,0-.3,1.38c.31,2.49-1,3.67-3.37,3.08a30.49,30.49,0,0,0-5.43-1.19c-6.63-.3-12.19,2.32-17,6.73A6.67,6.67,0,0,0,174.49,103.25Z" transform="translate(-7.4 -17.84)"/><path class="cls-1" d="M138.1,191.75c0,5,3,6.72,6.75,8.24a1.53,1.53,0,0,0,1.38-.49c.2-.28,0-1-.18-1.39-.5-1.24-1.55-2.44-1.55-3.66,0-2.83-1.82-3.95-3.87-5-1.36-.71-2.08-.35-2.41,1.16A6.33,6.33,0,0,0,138.1,191.75Z" transform="translate(-7.4 -17.84)"/><path class="cls-1" d="M96.87,150.09c0,2.32,1.06,3.94,2.7,3.71a9,9,0,0,0,4.29-1.51c1-.81,2.22-2.62,1.94-3.58s-2.12-2-3.45-2.34C99.26,145.62,96.85,147.42,96.87,150.09Z" transform="translate(-7.4 -17.84)"/><path class="cls-1" d="M207.14,146.5a10.41,10.41,0,0,0-1.25,0c-2.53.27-3.58,2.07-2.54,4.31.83,1.78,4.53,3.53,6.42,2.85a3.11,3.11,0,0,0,1.72-1.58C212.5,149.4,212,146.3,207.14,146.5Z" transform="translate(-7.4 -17.84)"/><path class="cls-1" d="M172.57,99.45c2.16-.07,3.32-.46,4.4-2.28a3.81,3.81,0,0,0,.35-2.94A2.87,2.87,0,0,0,175,93.07a13.26,13.26,0,0,0-4.15.87c-1.85.67-2.47,1.92-2,3.65S170.57,99.55,172.57,99.45Z" transform="translate(-7.4 -17.84)"/><path class="cls-1" d="M93.89,106.31c-2.25-.41-3.39.26-4.27,2.25a3,3,0,0,0,.87,3.87,3.65,3.65,0,0,0,4.34-.14c1-1,1.81-2.08,1.23-3.82-1.26,1-2.09,3.07-3.64,1.56S93.05,107.58,93.89,106.31Z" transform="translate(-7.4 -17.84)"/><path class="cls-1" d="M212.7,108.5a3.88,3.88,0,0,0,2,4.33,3.68,3.68,0,0,0,4.21-1.1,3.59,3.59,0,0,0-.66-4.6,2.83,2.83,0,0,0-3.51-.71c1.13,1.11,3,2.07,1.66,3.53C214.85,111.63,214,109.37,212.7,108.5Z" transform="translate(-7.4 -17.84)"/><path class="cls-1" d="M95.83,85.68a2.54,2.54,0,0,0,2.46,2.41A3.2,3.2,0,0,0,101,85.27a2.18,2.18,0,0,0-2.35-2.2A2.75,2.75,0,0,0,95.83,85.68Z" transform="translate(-7.4 -17.84)"/><path class="cls-1" d="M210.16,83.07a2.3,2.3,0,0,0-2.46,2.29,3.53,3.53,0,0,0,2.68,2.76,2.53,2.53,0,1,0-.22-5.05Z" transform="translate(-7.4 -17.84)"/><path class="cls-1" d="M206.14,57.42c-1.58,2-3.14,4.07-4.74,6.08-.82,1-1.68.49-2.52,0a57,57,0,0,0-20-7.65c-6.68-1.25-13.45-2.29-20.34-2-5.28.23-10.59-.12-15.86.27-9.41.7-18.66,2.37-27.29,6.44-1.9.89-3.69,2-5.55,2.95-.42.22-1.15.44-1.43.24-2.08-1.49-4.08-3.08-6.51-4.94,1.88-1.66,3.56-3.44,5.51-4.84,7.4-5.31,16.12-7.38,24.72-9.42a106.28,106.28,0,0,1,25.49-2.84,93,93,0,0,1,24.58,3.71c4.72,1.34,9.07,3.95,13.7,5.69a34.26,34.26,0,0,1,9.26,5.38c.64.51,1.25,1.06,1.87,1.6Z" transform="translate(-7.4 -17.84)"/><path class="cls-1" d="M50.55,145.78c-5.41,2.2-12.77-33.41,13.8-52.91,1.68-1.23,2.57-1.62,4.12.69,4.16,6.21,11.22,12.61.55,16.73-7.69,3-13.21,17.83-10.74,25.86C59.13,139,53.07,144.75,50.55,145.78Z" transform="translate(-7.4 -17.84)"/><path class="cls-1" d="M110.25,214.21a2.08,2.08,0,0,1,.85,2.87c-.57,1-1.08,1.88-1.64,2.73-3.23,4.91-3.64,10.43-3.48,16.05.08,2.65-.36,3.21-2.78,2.08-5-2.33-10-4.85-14.91-7.44-1.85-1-3.26-2.67-4.8-4.13A4.79,4.79,0,0,1,82,223.08c-.18-6.23,2.91-20.68,5.26-20.67,2.13,0,4.86.76,5.74,2.84s3,15.5,3.39,12.31c.79-5.81-1.92-11.41,8.33-6.12C106.57,212.26,108.38,213.22,110.25,214.21Z" transform="translate(-7.4 -17.84)"/><path class="cls-1" d="M42.53,111.94c-8.12-4.84-16.78-5.66-26.07-2.7a2.2,2.2,0,0,1-2.84-2.57,21,21,0,0,1,1.1-3.66,78.3,78.3,0,0,1,5.07-9.85c2.63-4.37,6.85-5,11.48-4.22,4.07.66,8.15,1.26,12.22,2a5.84,5.84,0,0,1,2.63,1c2.62,2.18,5.22,4.43,6.69,7.61.18.4-.16,1.19-.47,1.66-2.23,3.35-4.5,6.68-6.86,10.14A2.21,2.21,0,0,1,42.53,111.94Z" transform="translate(-7.4 -17.84)"/><path class="cls-1" d="M116.64,25.71c2.13-1.2,3.51-.74,5.55,1.73a46.64,46.64,0,0,0,3.9,4.21,10.64,10.64,0,0,0-2.62-8c2.94-1.81,4.8.57,7.25,1.73l.34-4c3.91-.55,7.85-1.17,11.82-1.62,3.15-.37,6.33-.6,9.5-.74a3.13,3.13,0,0,1,2.19.83,18.06,18.06,0,0,1,5.22,10c.5,3.38-1.89,8.15-4.93,9.68a2.86,2.86,0,0,1-1,.16c-3,.19-6,.29-8.92.58-2.3.22-4.58.67-6.86,1-1-5.91-1.32-12-7.65-15.64.46,2.44,1,4.54,1.22,6.67a55.27,55.27,0,0,1,.33,8c0,.88-1.1,1.72-2,2.47A19.22,19.22,0,0,0,126,31.87c0,2.15.1,3.82,0,5.48-.16,2.07-.47,4.13-.78,6.19a8.26,8.26,0,0,1-.62,1.6l-.84-.59C124.92,36.9,122.66,30.57,116.64,25.71Z" transform="translate(-7.4 -17.84)"/><path class="cls-1" d="M267.26,127.85c-5.48-2.32-10.92,0-16.13,1.62.81-3.39-.12-6.73-1.5-9.85-1.54-3.49-4.73-5.61-7.67-7.85-1.57-1.18-3.28-2.17-4.83-3.38a3.69,3.69,0,0,1-1.48-3.93A23.83,23.83,0,0,1,240.43,94c1.72-2.09,3.07-2.18,5.16-.55,4.51,3.55,7.49,8.24,10.19,13.19s5.51,9.78,8.15,14.74c.94,1.76,1.28,3.84,3.49,4.71a25.91,25.91,0,0,1,3.63,1.95c3.8,2.22,6.48,9,4.09,14.14C274.93,142.16,274.93,130.36,267.26,127.85Z" transform="translate(-7.4 -17.84)"/><path class="cls-1" d="M117.57,205.73c1.18-2.94,2.86-3.4,5.61-2a40,40,0,0,0,13.31,3.49c.36,0,1,.08,1.32.1,4,.2,4.51,1.79,4.6,5.91.07,3-.24,6.06-3.32,7.85-1.94,1.13-4,.68-5.91.24a84.87,84.87,0,0,1-19.53-7.59c-3.44-1.77-7-3.24-10.44-5.09-3.2-1.74-6.23-3.8-9.33-5.72A31.32,31.32,0,0,1,89.42,200c-.62-.61.44-1.95,1.14-2.53,3.51-2.84,15.76-4.79,15.33-3.39-.78,2.55-2.72,8.93,3.71,14.13C114.25,212,115.66,209.78,117.57,205.73Z" transform="translate(-7.4 -17.84)"/><path class="cls-1" d="M183.11,22.63c4,1.23,8,2.45,12,3.71a2.12,2.12,0,0,1,.93.78c2.81,4,4.27,8.26,3.23,13.2a12.55,12.55,0,0,0,0,2.67,12.63,12.63,0,0,0,2.88-.94c3.13-1.94,4.19-4.93,4-8.48,0-.47-.05-.94-.07-1.42,2.53.21,3,.68,3.51,2.88.76,3.53-.07,6.92-.87,10.29a58.53,58.53,0,0,1-2,5.73,4.64,4.64,0,0,0,1.77.26c5.1-.91,9.43-6.1,9.6-11.36.07-2.27.9-2.68,2.92-1.6,1.53.82,3.16,1.43,4.7,2.23a33.34,33.34,0,0,1,2.89,1.87c-6.24,4.45-12.33,8.76-18.37,13.13-.85.61-1.51.68-2.19-.07-3.72-4.11-8.67-6-13.7-7.91-4-1.47-7.91-3.17-12-4.84,3.18-2.42,5.38-5.52,4.72-9.64-.58-3.62-1.07-7.42-4.27-10Z" transform="translate(-7.4 -17.84)"/><path class="cls-1" d="M243.4,88.22c.77-.61,1.5-1.29,2.32-1.82,6.22-4,8.91-10,9.81-17.08.2-1.59.45-3.18.79-4.75.19-.88.8-1.37,1.73-.82A11,11,0,0,1,259.76,65a104,104,0,0,1,7.62,7.21,10.86,10.86,0,0,1,2.88,9.45c-1.13,5.82-5.27,8.82-10.58,10.52-2.38.76-4.76,1.5-7.18,2.12-1.67.43-2.86-.3-4-1.63A50.41,50.41,0,0,0,243.4,88.22Z" transform="translate(-7.4 -17.84)"/><path class="cls-1" d="M56,176.07c-.07,1.17-3.36,10.88-4.44,15-1,3.87-2.23,3.91-5.09,2.59-4.3-2.38-13.78-13.37-9-18.38,1.27-1.32,6.71-7.85,9.09-11a2.66,2.66,0,0,1,1.23-.91C52.5,161.6,56.5,166.53,56,176.07Z" transform="translate(-7.4 -17.84)"/><path class="cls-1" d="M285.32,94.39c1.25,1.76,2.79,3.39,3.66,5.32a79.77,79.77,0,0,1,3,8.63c.63,1.93-.5,3.36-1.62,4.66a20.05,20.05,0,0,1-16,7.11,22.89,22.89,0,0,1-7.62-1.75c-1.19-.43-2.08-1.82-2.94-2.91a19.48,19.48,0,0,1-1.56-3,22.72,22.72,0,0,1,3.15-1.21,29.15,29.15,0,0,0,13.33-7.37,35.1,35.1,0,0,0,4.56-5.18,16.36,16.36,0,0,0,1.51-3.93Z" transform="translate(-7.4 -17.84)"/><path class="cls-1" d="M223.5,68.48A18.39,18.39,0,0,1,221,67.9a17.11,17.11,0,0,1-8.58-7.75c-.19-.32,0-1,.23-1.42,1.25-2.79,4.18-3.64,6.39-5.3,2.86-2.15,5.93-4,8.92-6a6.22,6.22,0,0,1,9.4,3.63c1.58,5.52,0,10.13-3.92,14C230.75,67.76,227.08,67.9,223.5,68.48Z" transform="translate(-7.4 -17.84)"/><path class="cls-1" d="M96.1,59.7c-2.65,7.06-11.27,10.35-17.92,7.41-5.35-2.37-9-6-10.69-11.55A5.85,5.85,0,0,1,69,49.44a4.77,4.77,0,0,1,5.29-.91,101.76,101.76,0,0,1,19,8.9A32.87,32.87,0,0,1,96.1,59.7Z" transform="translate(-7.4 -17.84)"/><path class="cls-1" d="M124.49,232.59c-.11-.66-4,10-7.65,8-1.45-.78.68-5.06,4.36-14.86,0,0,1.17-4.5,3-4.1,2,.44,4,1.1,6.07,1.57,1.5.34,3,.62,4.62.92a2.15,2.15,0,0,1,1.71,1.77c.79,5.22.82,9.34,2,12.38,4.88,12,.52,9.86-17.3,7.16-1.47-.22-1.78-1.27-.34-2.47C123.5,241,125,235.86,124.49,232.59Z" transform="translate(-7.4 -17.84)"/><path class="cls-1" d="M43.49,145.07c-.76,1.64-3.6.43-5.41.68-5.13.7-9.47,2.88-12.55,7.15-.52.72-1.31,2-2,3.26a1.78,1.78,0,0,1-3.11-.06c-2.84-5.23-5.61-10.35-6.32-16.36a2.53,2.53,0,0,1,1.7-2.94,10,10,0,0,1,7.71-.53,13.57,13.57,0,0,0,6.05.37C44.45,134.7,44.89,142,43.49,145.07Z" transform="translate(-7.4 -17.84)"/><path class="cls-1" d="M75.38,190.26a3.86,3.86,0,0,1,.84,3.4c-1.77,7.34-14.9,20.8-22.75,8.81a3.26,3.26,0,0,1-.49-1.24,15.74,15.74,0,0,1,.58-6.14C60.8,176.74,71.94,186.24,75.38,190.26Z" transform="translate(-7.4 -17.84)"/><path class="cls-1" d="M42,66.45c8.34-7.18,6.58-6.3,10.18-7C54.37,59,54.44,81.1,63.9,87.06a.44.44,0,0,1,.07.7l-2.31,2.1a.43.43,0,0,1-.67-.1c-3.35-5.52-8.6-7.71-14.35-9.43a17.09,17.09,0,0,0-10.54,0,56.21,56.21,0,0,0-5.35,2.49c-1.28.58-4.28,1.82-2.85-2" transform="translate(-7.4 -17.84)"/><path class="cls-1" d="M160,210.55c-.78-.16-10.39,6.19-14.86.78-1.12-1.35-1.37-2.74.32-3.31a13,13,0,0,1,2.79,0c5.26,0,10.17-.55,15.44-.41,2.31.06,2.43,1,2.6,3.27.15,2.14.27,4.3.44,6.44.28,3.51-.47,9.09-10.7,10.46a10.24,10.24,0,0,1-11-5.33,5.45,5.45,0,0,1-.41-2.27c0-1.69.89-2.82,2.45-2.18C152.2,219.78,162.52,211.07,160,210.55Z" transform="translate(-7.4 -17.84)"/><path class="cls-1" d="M24.14,162.23c-.82-2.31,8.85-14.56,18-13.6a4.63,4.63,0,0,1,3.86,2.86C50.14,161.76,32.2,185,24.14,162.23Z" transform="translate(-7.4 -17.84)"/><path class="cls-1" d="M13.1,124.87a1.92,1.92,0,0,1-1.87-1.56c-.4-2.72-.94-8.06,1.49-9.15,14.8-6.64,29.33-1.71,29.26,8.74a1.83,1.83,0,0,1-2.21,1.55C28.3,122.55,17.9,124.82,13.1,124.87Z" transform="translate(-7.4 -17.84)"/><path class="cls-1" d="M104.3,53.34c0,1.61-3.54,3.68-4.12,3.93a3.42,3.42,0,0,1-2.71-.64c-5.53-3.8-19.13-8.67-19.66-9-6-3.15,2.15-7.58,4.55-8.46s6.45-3.75,9-3.82C98.27,35.2,104.3,51,104.3,53.34Z" transform="translate(-7.4 -17.84)"/><path class="cls-1" d="M253.36,97.67a44.06,44.06,0,0,0,12.21-4.29c3.44-1.72,5.36-4.84,7.52-7.73a5.1,5.1,0,0,0,1.2-4.53,1,1,0,0,1,.43-.85,1,1,0,0,1,.9.33c1.57,1.79,3.16,3.57,4.6,5.46a2.86,2.86,0,0,1,.32,2,15.53,15.53,0,0,1-3.93,7.5c-3.89,4.28-9.21,5.11-14.32,6.36C259.47,102.66,254.77,100.13,253.36,97.67Z" transform="translate(-7.4 -17.84)"/><path class="cls-1" d="M147.92,246.57c-4.3.47-9-16.75-9-19.15,0-1.39,1.53-1.27,2.39-.11,3.78,5.1,8.42,8.92,14.81,10.32a17.18,17.18,0,0,1,4,1.57c1.36.68,1.51,1.91.32,2.82A20.54,20.54,0,0,1,147.92,246.57Z" transform="translate(-7.4 -17.84)"/><path class="cls-1" d="M96.05,33.4c-.63-.8,5.6-3.36,6.31-3,1.84,1,3.85,2.25,5,3.95,1.59,2.45,3.12,5.52,5.49,7.28,8,6-4.92,10.58-7.07,10.42C104.57,52,106.05,45.94,96.05,33.4Z" transform="translate(-7.4 -17.84)"/><path class="cls-1" d="M113,237.49a3.07,3.07,0,0,1-2.33.78c-4.64-2.41.83-19.53,5.18-18.31C117.18,220.35,119.29,232.48,113,237.49Z" transform="translate(-7.4 -17.84)"/><path class="cls-1" d="M71.12,204.23c2.69-2.35,14-8.8,9.78,1.51-1.19,2.92-4.42,4.45-7.44,5.52a3.88,3.88,0,0,1-1.76.16C63,210.3,71.05,204.29,71.12,204.23Z" transform="translate(-7.4 -17.84)"/><path class="cls-1" d="M143.46,225.57c1.06-.42,3.69,2.59,4.59,3.21,4.7,3.27,9.59,3.07,14.59.82,1.08-.49,2.15-1,3.19-1.59s1.46-.1,1.63.84a5.94,5.94,0,0,1-5.87,6.87,20.44,20.44,0,0,1-12.31-4.27C147.85,230.33,143.25,226.41,143.46,225.57Z" transform="translate(-7.4 -17.84)"/><path class="cls-1" d="M37.61,130.23c1.3,1,1,2.43-.55,3-3,1.1-13.57,2.45-14.49-2.13S27.17,122.42,37.61,130.23Z" transform="translate(-7.4 -17.84)"/><path class="cls-1" d="M161.93,19.5c3.68-.19,4.89.44,5.7,3.49,1.39,5.18,1.76,10.29-.95,15.36-1.11,2.08-2.35,2.14-4.35,1.64,2.71-2.93,2.85-6.44,2.62-10.11S164.2,22.75,161.93,19.5Z" transform="translate(-7.4 -17.84)"/><path class="cls-1" d="M175.38,38.9c.42-2.43,1.18-4.83,1.15-7.22s-.82-4.8-1.29-7.25c2.86,1.17,5.74,4.93,5.72,7.4C180.93,35.16,179,37.51,175.38,38.9Z" transform="translate(-7.4 -17.84)"/><path class="cls-1" d="M49.73,88.46a.27.27,0,0,1-.18.47c-3.38-.09-6.75-.76-10.29-1.19-3.25-.42-2.16-4.22-1.84-4.45C41,80.67,47.83,86.81,49.73,88.46Z" transform="translate(-7.4 -17.84)"/><path class="cls-1" d="M75.64,184.94a.72.72,0,0,1-1,.82c-2.8-1.11-9.52-4.07-8.92-6.64C66.27,176.83,73.33,173.58,75.64,184.94Z" transform="translate(-7.4 -17.84)"/><path class="cls-1" d="M263.48,103.57a3.8,3.8,0,0,1,4,3.47c0,1.2-1.62,2.41-3.29,2.44-2.19,0-4-1.31-4-2.93C260.16,104.41,261.1,103.57,263.48,103.57Z" transform="translate(-7.4 -17.84)"/><path class="cls-1" d="M78.39,215.81a3.17,3.17,0,0,1-.92,2.36,2.52,2.52,0,0,1-3.19.38c-1.66-1.16-2.57-4,.08-5.17a2.72,2.72,0,0,1,1.23-.22C77.54,213.22,78.37,214.06,78.39,215.81Z" transform="translate(-7.4 -17.84)"/><path class="cls-1" d="M115.78,37.4a2.53,2.53,0,0,1-2.71-2.27,2.3,2.3,0,0,1,2.2-2.53,2.58,2.58,0,0,1,2.83,2.33A2.48,2.48,0,0,1,115.78,37.4Z" transform="translate(-7.4 -17.84)"/><path class="cls-1" d="M53.21,87.17a.21.21,0,0,1,.24-.21c2.44.5,4.09,2.82,4.6,4.9A3.94,3.94,0,0,1,57,95.07a.38.38,0,0,1-.46.07C55.14,94.4,53.44,90.22,53.21,87.17Z" transform="translate(-7.4 -17.84)"/><path class="cls-1" d="M13.84,128.7c1.76-3.29,7.9-.27,4.8,3.35C16.75,134.25,12.25,131.64,13.84,128.7Z" transform="translate(-7.4 -17.84)"/><path class="cls-1" d="M156.13,72.65h-3.47l1.22-4.77h1Z" transform="translate(-7.4 -17.84)"/><path class="cls-1" d="M58,163.63c-4.76-5.65,3.3-4.17,3.57-3.22C62.26,162.89,58.94,164.74,58,163.63Z" transform="translate(-7.4 -17.84)"/><path d="M133.13,189.14c-3.16-1.81-5.87-3.65-7.82-6.5a7.72,7.72,0,0,1-1.07-6c.26-1.36-.29-1.78-1.37-2a8.93,8.93,0,0,1-6.58-4.78,5.75,5.75,0,0,1-.08-5.68c1-2,2.43-2.46,4.78-1.32-.57.84-1.13,1.66-1.66,2.49-1.07,1.69-.66,3.28.81,4.59,2.65,2.35,5.93,2.73,9.18,3,5.39.49,10.83.37,15.94-1.53,2.64-1,5.63-2,6.89-5a9.15,9.15,0,0,0,.76-3.77c-.09-2.75-.51-5.49-.72-8.24a3.9,3.9,0,0,0-2.94-3.8c-1.42-.46-3.36-1.61-4.76-2.11a4.31,4.31,0,0,1-2.73-3.6c0-2,1.42-2.93,3-3.41a7.79,7.79,0,0,1,4.38-.33c3.62,1.18,6.94.72,10.66,0a7.73,7.73,0,0,1,4,.25c1.61.49,3.15,1.36,3.21,3.42,0,1.58-1.85,3.84-3.52,4.38-1.48.48-2.94,1-4.39,1.57a3.56,3.56,0,0,0-2.46,3.2c-.28,3.11-.69,6.2-.84,9.31s1.74,5.06,4.24,6.55c4,2.36,8.36,2.94,12.89,3.19a32.33,32.33,0,0,0,12.87-1.44,7.36,7.36,0,0,0,3.36-2.25,4.87,4.87,0,0,0,.51-3.45,11.34,11.34,0,0,0-1.68-3.1c1.39-1.25,2.85-1.09,4,.46a6.15,6.15,0,0,1-.79,8.33,16.57,16.57,0,0,1-5.18,3c-1.2.48-1.73.78-1.48,2.23.63,3.69-1.86,8.28-5.2,10.09-1.19.65-2.32,1.4-3.72,2.26,0-4.09,1.46-8.14-1.36-12.17-.88,3-2,5.48-5,6.16-1.62-1.82-2.56-4.23-5.22-5.21-.11.52-.2.84-.24,1.16-.33,3-1,4-4.05,4.27a69,69,0,0,1-10.66,0c-3.15-.25-3.52-1-4.24-5.12-1.7-.24-2.6,1.42-5.29,4.89-3.08-.57-4.15-3-5.2-5.9C131.67,181.08,133.15,185.11,133.13,189.14Z" transform="translate(-7.4 -17.84)"/><path d="M154.47,150.37l5.62-2.37a33.92,33.92,0,0,0,3.45-1.45c.54-.3,1.27-1.13,1.16-1.53a2.34,2.34,0,0,0-1.49-1.51,11.07,11.07,0,0,0-4.55,0c-2.49.72-4.86,1.54-7.4.32a3,3,0,0,0-1.34-.46,19.81,19.81,0,0,0-5,.5c-1.33.43-1.31,1.67-.11,2.44a16.79,16.79,0,0,0,2.75,1.28C149.82,148.52,152.11,149.43,154.47,150.37Z" transform="translate(-7.4 -17.84)"/><path d="M152.94,171c-1.75.84-3.37,1.57-4.93,2.41-.44.24-1,.85-1,1.27a42.73,42.73,0,0,0,.51,5.53,2,2,0,0,0,1.12,1.38,39.19,39.19,0,0,0,4.26.65Z" transform="translate(-7.4 -17.84)"/><path d="M155.78,182.25c1.32-.17,2.42-.36,3.54-.45a1.92,1.92,0,0,0,2-2c.11-1.67.33-3.33.4-5a1.45,1.45,0,0,0-.59-1.14c-1.71-.91-3.47-1.72-5.35-2.62Z" transform="translate(-7.4 -17.84)"/><path d="M178.49,185.26c3.14-2.43,4.31-5.71,3.28-9.24l-4.44.75C177.72,179.6,178.1,182.4,178.49,185.26Z" transform="translate(-7.4 -17.84)"/><path d="M130.28,185.13c.38-2.77.77-5.59,1.15-8.37l-4.56-.75C126.18,180.25,127.45,183.48,130.28,185.13Z" transform="translate(-7.4 -17.84)"/><path d="M135.85,176.86a26.82,26.82,0,0,0,1.85,3.24c.27.35,1.29.61,1.53.41a42,42,0,0,0,3.46-3.47,3.24,3.24,0,0,0,.41-1.08,3.49,3.49,0,0,0-1.12-.31c-1.59.15-3.19.35-4.77.6A6.4,6.4,0,0,0,135.85,176.86Z" transform="translate(-7.4 -17.84)"/><path d="M165.45,175.58c.17.67.15.9.25,1,1.28,1.36,2.55,2.72,3.89,4a1.24,1.24,0,0,0,1.15-.2c.59-1.26,1-2.58,1.59-4Z" transform="translate(-7.4 -17.84)"/><path d="M226.35,94.71c-.42,1-.7,1.86-1.07,2.63a7.2,7.2,0,0,0,1.05,8c2.46,2.71,2.64,5.69,1.11,8.85-.66,1.36-.42,1.94,1.11,2.06a4.61,4.61,0,0,1,4.16,4.35c0,.53,0,1.06.07,1.58a4.27,4.27,0,0,0,3.69,4.53l3.9.94c-1,1.81-2.55,1.48-3.86,1.32-4.4-.55-6.06-2.2-7.32-6.49a4.39,4.39,0,0,0-2-2.49c-5.05-2.43-7.41-1.2-11.89,2.14a8.22,8.22,0,0,0-2.94,4.69c-1.53,5.53-5.38,9.28-10.2,12-9.65,5.43-18.81,3.72-27.55-2.32-.24-.17-.45-.39-.69-.57l-1.72-1.32a13.7,13.7,0,0,0-.77,2.29,3,3,0,0,1-3.12,2.95,2.87,2.87,0,0,1-2.54-1.08,2.14,2.14,0,0,1-.28-2.05,8.74,8.74,0,0,1,2.33-3.63,4.33,4.33,0,0,0,1.34-4.92,21.48,21.48,0,0,1-.62-7.53,28,28,0,0,1,1.84-8.05c2.43-5.94,7.83-7.94,13.52-9.5,4.58-1.26,9.18-.81,13.63.1A17.81,17.81,0,0,1,205,107a22.37,22.37,0,0,1,7,9.84,2,2,0,0,0,2.23,1.46c3.67,0,6.7-1.68,9.55-3.65,1.95-1.35,1.78-5-.25-7.29a8.15,8.15,0,0,1,1.69-12.45A4.59,4.59,0,0,1,226.35,94.71Z" transform="translate(-7.4 -17.84)"/><path d="M189.35,139.15c1.53-.13,2.67-.21,3.8-.33A18.47,18.47,0,0,0,209.41,125c.73-2.54-.13-4.86-.62-7.23a15.13,15.13,0,0,0-9.38-11.06,23.79,23.79,0,0,0-14.24-1.64c-3.75.8-7.34,2-10.12,4.66a15.75,15.75,0,0,0-4.72,13c.23,3.46.75,6.86,3.09,9.54C177.7,137.18,183.37,139,189.35,139.15Z" transform="translate(-7.4 -17.84)"/><path d="M170.19,133.67c-1.65.62-3.31,2.9-3.18,3.88,0,.31.36.82.53.81.41,0,1.05-.19,1.18-.48C169.25,136.65,169.62,135.36,170.19,133.67Z" transform="translate(-7.4 -17.84)"/><path d="M68.17,127.67c1.63-.32,2.84-.58,4-.79a4.2,4.2,0,0,0,3.75-4.3c0-.78,0-1.56.11-2.34a4.14,4.14,0,0,1,3.89-4,16.26,16.26,0,0,0,1.78-.4,28.81,28.81,0,0,1-1.27-3.19,6.31,6.31,0,0,1,1.67-6.73c3.83-3.68,3.78-3.74,1.35-8.55-.22-.43-.41-.87-.59-1.31a4,4,0,0,1-.1-.52c2.75.4,5.09,3.38,4.92,6.5-.13,2.28-.51,4.44-2.75,5.91-2,1.33-2,5.23.06,6.66,2.85,2,5.87,3.63,9.56,3.64,1.37,0,1.8-.53,2.24-1.66,2.57-6.62,7.09-11.51,14-13.28a28.5,28.5,0,0,1,18.09,1.1c5.56,2.26,9.48,5.85,10.76,11.77a24.89,24.89,0,0,1-.27,12.79,3.31,3.31,0,0,0,.91,3.55,22.09,22.09,0,0,1,3.17,4.65c.49,2.45-2.61,3.14-3.76,2.95-1.4-.23-2.11-1.47-2.34-2.88-.09-.53-.09-1.08-.22-1.6-.27-1.07-.71-1.49-1.69-.49-4.31,4.42-9.75,6.39-15.75,6.8a20.8,20.8,0,0,1-7.14-.52,26.34,26.34,0,0,1-7.87-3.72c-3.79-2.76-7.3-6-8.33-10.91-.79-3.69-3.64-5.19-6.37-7s-5.76-.88-8.61-.06c-1.71.49-2,2.06-2.16,3.61-.44,3.85-6.55,7.06-10,5.25A7.44,7.44,0,0,1,68.17,127.67Z" transform="translate(-7.4 -17.84)"/><path d="M98.5,123.17a11.76,11.76,0,0,0,3.47,9.29,19.09,19.09,0,0,0,3.7,3.11c2.32,1.28,4.74,2.77,7.28,3.2a25.56,25.56,0,0,0,19.64-4.4,13.26,13.26,0,0,0,5.5-9c.5-3-.26-5.79-1-8.62-1.14-4.53-3.7-8-8.09-9.64a29.18,29.18,0,0,0-18-.94C104,108,98.45,115.08,98.5,123.17Z" transform="translate(-7.4 -17.84)"/><path d="M138.62,133.81c.54,1.55.94,2.88,1.48,4.15.11.26.69.46,1,.44s.55-.47.6-.77C142,136.6,140.19,134.22,138.62,133.81Z" transform="translate(-7.4 -17.84)"/><path d="M80.35,150.63a6.7,6.7,0,0,1-.53,2c-2.2,2.92-4.49,5.76-6.68,8.68-.45.6-1.64,2-1.59,2.84.07,1.4,12.42-6,12-.41-.2,2.59-1.93,17,9.27,15.08,2.77-.47,16.62-2,9.07-8.86a4.21,4.21,0,0,1,4.35,4,.66.66,0,0,0,.69.62c5.28-.67,7.81,1.68,8.92,6.34.65,2.72-3.53,6.62-2.92,5.65,1.89-3-.71-12.21-6.64-7.51a1.13,1.13,0,0,0-.19,1.58,3.65,3.65,0,0,1,.83,1.46c.78,4.09-3.31,3.55-4.4,3a3.53,3.53,0,0,1-1.72-2.81c-.12-2.75-1.27-1.75-2.42-1.47a31.33,31.33,0,0,1-6.68,1.17C81.61,182.3,79.29,171.4,80,168c.91-4.23-1.48-3.52-4.3-2.21-2.07,1-4.06,2.07-6,3.15A1.2,1.2,0,0,1,68,167.66c.5-3.53,1.53-7,4.26-9.91,1-1.05.8-1.88-.28-2.65s-2-1.31-3-2c-1.44-1.05-2.81-2.2-4.28-3.2s-3.12-2-4.9-3.1a.23.23,0,0,1,0-.42,6.61,6.61,0,0,1,5.31.4c2.49,1.44,3.08,1.05,3.24-1.77.25-4.35,1.91-8,6.09-9.82,2.38-1,3.81-2.39,3.54-5.12a3.53,3.53,0,0,1,.33-1.18c2.94,2.77,2.34,6.78-1.11,8.2a9.69,9.69,0,0,0-6,10.23c.36,2.92,4.28,6.19,7.74,3.9A10.65,10.65,0,0,1,80.35,150.63Z" transform="translate(-7.4 -17.84)"/><path d="M105.89,183a11.36,11.36,0,0,0-2.3-1.37c-.18-.06-1,.94-.92,1.15a8.53,8.53,0,0,0,1.43,1.78Z" transform="translate(-7.4 -17.84)"/><path d="M174.33,142.7a16.17,16.17,0,0,1,2.14.78,15,15,0,0,0,7.68,2c6.8,0,12.38,2.71,17.12,7.62a49.63,49.63,0,0,0,8.51,6.82c2.75,1.81,6,1.39,9.07.62,1.56-.4,1.77-1.77,1.84-3.16.09-1.62-.28-3.05-1.87-3.73a25.58,25.58,0,0,0-3.62-1c0-1.76,1.51-2.23,2.77-2.56,3-.77,6.3,1.77,6.6,4.83.61,6.05-3.55,10.05-9.66,9.83A21.27,21.27,0,0,1,204.05,161a8.51,8.51,0,0,1-2.23-2c-2.06-2.83-4.51-4.29-8.25-3.82-5.64.71-10.7-.74-14.45-5.38-1.42-1.76-2.82-3.56-4.19-5.37A7.88,7.88,0,0,1,174.33,142.7Z" transform="translate(-7.4 -17.84)"/><path d="M187.8,148.87c-1.31,0-2.77-.06-3.14,1.63-.25,1.13,1.21,2.22,3,2.43,2.07.23,4.05-.61,4-1.72C191.72,149.92,189.88,148.83,187.8,148.87Z" transform="translate(-7.4 -17.84)"/><path d="M93.89,152.63a11,11,0,0,0-2.61.68c-1.39.78-3,1.53-3,3.49a4.89,4.89,0,0,0,3.32,4.1c3.35,1.1,9.11-1.33,11.38-4.05,2.89-3.47,6.1-6.63,10.38-8.66a28.69,28.69,0,0,1,13.34-2.75c1.51,0,3.05-.92,4.58-1.44.42-.14.82-.34,1.67-.71-2.37,5-5.18,9.05-10,11.08a12.24,12.24,0,0,1-6.3.81,9.74,9.74,0,0,0-9.8,3.59c-3.11,3.66-7.5,5.15-12.22,5.82a9.09,9.09,0,0,1-7.15-1.48c-3.46-2.58-4.39-6.28-2.08-10.25,1.1-1.89,5.24-3,7.07-1.84A6.9,6.9,0,0,1,93.89,152.63Z" transform="translate(-7.4 -17.84)"/><path d="M121,148.72a7.66,7.66,0,0,0-2.36.62,8.54,8.54,0,0,0-1.64,2,9.79,9.79,0,0,0,2,1.49,3.89,3.89,0,0,0,2.12.1c1.34-.26,3-.56,2.91-2.3S122.38,148.9,121,148.72Z" transform="translate(-7.4 -17.84)"/><path d="M168.56,81c.74-2,2.33-3,4-3.93,4.86-2.6,10-2.87,15.28-1.74a33.15,33.15,0,0,0,15.25-.12c1.25-.31,1.53.46,1.54,1.35a36.39,36.39,0,0,1-.19,4.3c-.62,5.89,2.43,8.9,7.78,10.13a14.34,14.34,0,0,1,3.5,1.26c1.1.6,2.31,1.51,1.63,3s-2,1.46-3.39,1.23c-3.3-.54-5.47-2.77-7.64-5-3-3.08-5.94-6.2-9-9.2a9,9,0,0,0-3-1.63c-6.82-2.76-13.87-2.9-21-1.52A29.27,29.27,0,0,0,168.56,81Z" transform="translate(-7.4 -17.84)"/><path d="M140,81.11c-2.84-2.21-6.28-2.34-9.53-2.66A31.22,31.22,0,0,0,114,80.89c-2,.92-3.59,2.69-5.21,4.23-3.29,3.11-6.35,6.46-9.73,9.46a6.51,6.51,0,0,1-6.45,1.72c-1.49-.47-2-1.92-.84-2.88a12.85,12.85,0,0,1,4.5-2.35c3.14-.88,6.22-1.82,7.38-5.21a19,19,0,0,0,.57-5.24c.07-1.37-.14-2.76-.1-4.13,0-.82.32-1.55,1.45-1.27a34.25,34.25,0,0,0,15.6.09,21.39,21.39,0,0,1,14.94,1.75C137.83,78,139.49,79,140,81.11Z" transform="translate(-7.4 -17.84)"/><path d="M88.53,126.75a13.4,13.4,0,0,1,1.08,1.58,6.34,6.34,0,0,1,.52,1.72,10.62,10.62,0,0,0,6.72,8.56c2.92,1.21,5.85,2.4,8.84,3.37,2.66.86,4.16,2.37,4.06,4.58-2-.55-3.93-1.13-5.91-1.65a12.34,12.34,0,0,0-8.08.82c-3.49,1.44-7,1.23-10.57.59-2-.36-2.43-1.28-2.39-3.34a15.09,15.09,0,0,1,2.07-7.69,22.41,22.41,0,0,0,1.76-4.11c.49-1.38.83-2.82,1.24-4.24Z" transform="translate(-7.4 -17.84)"/><path d="M89,133.81c-.61,1.34-1,2.38-1.53,3.38a25.4,25.4,0,0,0-1.51,3c-.81,2.47.12,3.58,2.68,3.75,2.81.19,5.22-.8,7.86-2.17C93.25,139.81,90.31,137.7,89,133.81Z" transform="translate(-7.4 -17.84)"/><path d="M199.13,146.71c-.42-2.08,1.15-3.85,3.8-4.69a79.17,79.17,0,0,0,8.06-2.94c2.51-1.1,5-2.42,6.3-5a36.28,36.28,0,0,0,1.64-5c.26-.77.6-1.52.9-2.28l.61.13a13.75,13.75,0,0,1,.78,1.34c1.46,3.33,3.11,6.6,4.27,10a17.52,17.52,0,0,1,.45,5.85c0,1.55-1.41,2-2.67,2.21-3.32.43-6.62.9-9.85-.67-4.59-2.23-9.09-1.33-13.48.72-.22.1-.43.22-.64.31C199.25,146.77,199.18,146.72,199.13,146.71Z" transform="translate(-7.4 -17.84)"/><path d="M220.45,134c-1.49,3.77-4.63,5.44-7.63,7.25-.38.23-.73.5-1.09.75a6.64,6.64,0,0,0,1.06,1.06c2.53,1.64,5.2,1.22,7.93.54a2.57,2.57,0,0,0,2.22-2.43A8.65,8.65,0,0,0,220.45,134Z" transform="translate(-7.4 -17.84)"/><path d="M166.11,89c3.36-5.52,8.69-6.5,14.18-7.11,1.07-.12,2.14-.12,3.21-.18,1.54-.1,4.22,1.73,4.66,3.19s-.92,3.79-2.64,4.65c-2.51,1.25-5.21,1.19-7.88,1.05-3-.16-6-.43-8.92-.75A13.47,13.47,0,0,1,166.11,89Z" transform="translate(-7.4 -17.84)"/><path d="M142.71,88.91a7.8,7.8,0,0,1-2.14.9c-4.78.29-9.56.64-14.34.6-1.43,0-3-1-4.26-1.89a3.24,3.24,0,0,1-1.23-3.83c.49-1.44,3.06-3.12,4.43-3,2.9.35,5.79.79,8.68,1.2C137.68,83.47,140.34,85.76,142.71,88.91Z" transform="translate(-7.4 -17.84)"/><path d="M134.35,103.42c-3.77-1.5-7-2.8-10.28-4.08A17,17,0,0,0,114,98.89a17.17,17.17,0,0,1-4.41.33c-3-.14-5.52.15-7,3.34-1,2.23-4.79,2.63-6.71,1-.84-.73-.6-1.58.52-2.26,2.13-1.3,4.3-2.56,6.3-4a11.42,11.42,0,0,0,2-2.79,5.57,5.57,0,0,1,.68-1c.6-.56,1.28-1,1.93-1.56a18.9,18.9,0,0,1,.29,2.23c0,1.74,1.36,2.75,3.2,2.37,2.34-.49,4.68-.94,7-1.41a1.65,1.65,0,0,1,.54,0c5.74.84,11,2.71,15.19,7A8.22,8.22,0,0,1,134.35,103.42Z" transform="translate(-7.4 -17.84)"/><path d="M174.49,103.25a6.67,6.67,0,0,1,.76-1.4c4.81-4.41,10.37-7,17-6.73a30.49,30.49,0,0,1,5.43,1.19c2.41.59,3.68-.59,3.37-3.08a4.4,4.4,0,0,1,.3-1.38c.43.19,1,.27,1.26.6.59.8.9,1.82,1.55,2.55a32.76,32.76,0,0,0,4.07,3.92,32.51,32.51,0,0,0,4.2,2.38c1.25.7,1.28,1.68.07,2.44-2.6,1.63-5.15,1-6.64-1.72-1.31-2.35-3.19-3.1-6.23-2.89a21.36,21.36,0,0,1-5.29-.35,17,17,0,0,0-9.56.53c-3.1,1.23-6.19,2.51-9.29,3.75A6.49,6.49,0,0,1,174.49,103.25Z" transform="translate(-7.4 -17.84)"/><path d="M138.1,191.75a6.33,6.33,0,0,1,.12-1.14c.33-1.51,1.05-1.87,2.41-1.16,2.05,1.05,3.87,2.17,3.87,5,0,1.22,1.05,2.42,1.55,3.66.18.43.38,1.11.18,1.39a1.53,1.53,0,0,1-1.38.49C141.1,198.47,138.09,196.71,138.1,191.75Z" transform="translate(-7.4 -17.84)"/><path d="M96.87,150.09c0-2.67,2.39-4.47,5.48-3.72,1.33.32,3.15,1.29,3.45,2.34s-.91,2.77-1.94,3.58a9,9,0,0,1-4.29,1.51C97.93,154,96.89,152.41,96.87,150.09Z" transform="translate(-7.4 -17.84)"/><path d="M101.2,148.07c-.61.71-1.38,1.34-1.28,1.55a2.33,2.33,0,0,0,1.41,1.25c.42.07,1-.62,1.46-1Z" transform="translate(-7.4 -17.84)"/><path d="M207.14,146.5c4.89-.2,5.36,2.9,4.35,5.59a3.11,3.11,0,0,1-1.72,1.58c-1.89.68-5.59-1.07-6.42-2.85-1-2.24,0-4,2.54-4.31A10.41,10.41,0,0,1,207.14,146.5Z" transform="translate(-7.4 -17.84)"/><path d="M207.39,147.91l-1.47,1.63a13.63,13.63,0,0,0,2.16,1.35c.2.09,1-.77,1-.81A24.92,24.92,0,0,0,207.39,147.91Z" transform="translate(-7.4 -17.84)"/><path d="M171.58,99.32c-4.3.48-1.89-3.26-.32-4.82,1.25-1.24,2-2,3.9-2a2.58,2.58,0,0,1,2.16,1.72,3.81,3.81,0,0,1-.35,2.94C175.89,99,173.74,99.26,171.58,99.32Z" transform="translate(-7.4 -17.84)"/><path d="M175.16,96.22c-.75-.56-1.14-1-1.29-.94a26.63,26.63,0,0,0-2.29,1.37c.25.26.58.79.74.74A29.14,29.14,0,0,0,175.16,96.22Z" transform="translate(-7.4 -17.84)"/><path d="M93.89,106.31c-.84,1.27-3.08,2.15-1.47,3.72s2.38-.61,3.64-1.56c.58,1.74-.2,2.84-1.23,3.82a3.65,3.65,0,0,1-4.34.14,3,3,0,0,1-.87-3.87C90.5,106.57,91.64,105.9,93.89,106.31Z" transform="translate(-7.4 -17.84)"/><path d="M212.7,108.5c1.26.87,2.15,3.13,3.72,1.45,1.37-1.46-.53-2.42-1.66-3.53a2.83,2.83,0,0,1,3.51.71,3.59,3.59,0,0,1,.66,4.6,3.68,3.68,0,0,1-4.21,1.1A3.88,3.88,0,0,1,212.7,108.5Z" transform="translate(-7.4 -17.84)"/><path d="M95.83,85.68a2.75,2.75,0,0,1,2.86-2.61,2.18,2.18,0,0,1,2.35,2.2,3.2,3.2,0,0,1-2.75,2.82A2.54,2.54,0,0,1,95.83,85.68Z" transform="translate(-7.4 -17.84)"/><path d="M100.53,85.91c-.9-.62-1.37-1.17-1.9-1.23s-.85.54-1.28.84c.41.36.77.92,1.24,1S99.57,86.25,100.53,85.91Z" transform="translate(-7.4 -17.84)"/><path d="M210.16,83.07a2.53,2.53,0,1,1,.22,5.05,3.53,3.53,0,0,1-2.68-2.76A2.3,2.3,0,0,1,210.16,83.07Z" transform="translate(-7.4 -17.84)"/><path d="M211.92,85.49c-.82-.44-1.36-.95-1.65-.84a6,6,0,0,0-1.47,1.22c.42.25.87.74,1.25.69S211.06,86,211.92,85.49Z" transform="translate(-7.4 -17.84)"/><path d="M149.89,134.05c-.23,3.09-4.16,1-4.47-.15C145.05,132,149.89,132.8,149.89,134.05Z" transform="translate(-7.4 -17.84)"/><path class="cls-1" d="M155.09,151a1.19,1.19,0,0,1-1,0c-2.17-1-4.23-2.59-6.35-3.46a16.69,16.69,0,0,1-2.74-1.28c-1.2-.77-1.43-2.42-.1-2.84,1.86-1.18,6.14.15,6.57.36,2.53,1.22,4.9.4,7.39-.32,1.41-.41,3.78-1,5.36-.24,2.21,1.09.07,3-.47,3.28a33.92,33.92,0,0,1-3.45,1.45C158.53,148.74,156.71,150.22,155.09,151Z" transform="translate(-7.4 -17.84)"/><path class="cls-1" d="M152.94,171v11.24a39.19,39.19,0,0,1-4.26-.65,2,2,0,0,1-1.12-1.38,42.73,42.73,0,0,1-.51-5.53c0-.42.52-1,1-1.27C149.57,172.58,151.19,171.85,152.94,171Z" transform="translate(-7.4 -17.84)"/><path class="cls-1" d="M155.78,182.25V171c1.88.9,3.64,1.71,5.35,2.62a1.45,1.45,0,0,1,.59,1.14c-.07,1.67-.29,3.33-.4,5a1.92,1.92,0,0,1-2,2C158.2,181.89,157.1,182.08,155.78,182.25Z" transform="translate(-7.4 -17.84)"/><path class="cls-1" d="M178.49,185.26c-.39-2.86-.77-5.66-1.16-8.49l4.44-.75C182.8,179.55,181.63,182.83,178.49,185.26Z" transform="translate(-7.4 -17.84)"/><path class="cls-1" d="M130.28,185.13c-2.83-1.65-4.1-4.88-3.41-9.12l4.56.75C131.05,179.54,130.66,182.36,130.28,185.13Z" transform="translate(-7.4 -17.84)"/><path class="cls-1" d="M135.85,176.86a6.4,6.4,0,0,1,1.36-.61c1.58-.25,3.18-.45,4.77-.6a3.49,3.49,0,0,1,1.12.31,3.24,3.24,0,0,1-.41,1.08,42,42,0,0,1-3.46,3.47c-.24.2-1.26-.06-1.53-.41A26.82,26.82,0,0,1,135.85,176.86Z" transform="translate(-7.4 -17.84)"/><path class="cls-1" d="M165.45,175.58l6.88.79c-.55,1.45-1,2.77-1.59,4a1.24,1.24,0,0,1-1.15.2c-1.34-1.29-2.61-2.65-3.89-4C165.6,176.48,165.62,176.25,165.45,175.58Z" transform="translate(-7.4 -17.84)"/><path class="cls-1" d="M189.35,139.15c-6-.11-11.65-2-15.93-6.9-2.34-2.68-2.86-6.08-3.09-9.54a15.75,15.75,0,0,1,4.72-13c2.78-2.68,6.37-3.86,10.12-4.66a23.79,23.79,0,0,1,14.24,1.64,15.13,15.13,0,0,1,9.38,11.06c.49,2.37,1.35,4.69.62,7.23a18.47,18.47,0,0,1-16.26,13.82C192,138.94,190.88,139,189.35,139.15Z" transform="translate(-7.4 -17.84)"/><path class="cls-1" d="M185.48,124.44c5.24.23,8.51-4.11,6.64-9.31-1-2.71-5-4.89-8.82-4.65a5.91,5.91,0,0,0-5.87,5.84A7.71,7.71,0,0,0,185.48,124.44Z" transform="translate(-7.4 -17.84)"/><path class="cls-1" d="M98.5,122.58c0-8.1,5.46-15.18,12.53-17a29.18,29.18,0,0,1,18,.94c4.39,1.64,6.95,5.11,8.09,9.64.72,2.83,1.48,5.59,1,8.62a13.26,13.26,0,0,1-5.5,9,25.56,25.56,0,0,1-19.64,4.4c-2.54-.43-5-1.92-7.28-3.2a19.09,19.09,0,0,1-3.7-3.11A11.75,11.75,0,0,1,98.5,122.58Z" transform="translate(-7.4 -17.84)"/><path class="cls-1" d="M113.53,124.8c5.41-.12,8.09-3.66,6.68-8.84-.84-3.09-4.73-5.35-8.79-5.12a5.91,5.91,0,0,0-6,6.07A7.74,7.74,0,0,0,113.53,124.8Z" transform="translate(-7.4 -17.84)"/><path class="cls-1" d="M139.29,134.77c.47-.55,3.4,2.41,2.88,3.17a2.15,2.15,0,0,1-2.22.85C138.83,138.64,138.4,135.79,139.29,134.77Z" transform="translate(-7.4 -17.84)"/><path class="cls-1" d="M103.22,184.05c-1.67-1.43-.82-2.6.4-2.92a1.42,1.42,0,0,1,1.24.27C107.15,183.27,103.94,184.67,103.22,184.05Z" transform="translate(-7.4 -17.84)"/><path class="cls-1" d="M187.8,148.87c2.08,0,3.92,1,3.93,2.34,0,1.11-2,1.95-4,1.72-1.82-.21-3.28-1.3-3-2.43C185,148.81,186.49,148.91,187.8,148.87Z" transform="translate(-7.4 -17.84)"/><path class="cls-1" d="M121,148.72c1.37.18,3,.15,3.06,1.87s-1.57,2-2.91,2.3a3.89,3.89,0,0,1-2.12-.1,9.79,9.79,0,0,1-2-1.49,8.54,8.54,0,0,1,1.64-2A7.66,7.66,0,0,1,121,148.72Z" transform="translate(-7.4 -17.84)"/><path class="cls-1" d="M89,133.81c1.28,3.89,4.22,6,7.5,7.95-2.64,1.37-5,2.36-7.86,2.17-2.56-.17-3.49-1.28-2.68-3.75a25.4,25.4,0,0,1,1.51-3C88,136.19,88.42,135.15,89,133.81Z" transform="translate(-7.4 -17.84)"/><path class="cls-1" d="M220.45,134a8.65,8.65,0,0,1,2.49,7.17,2.57,2.57,0,0,1-2.22,2.43c-2.73.68-5.4,1.1-7.93-.54a6.64,6.64,0,0,1-1.06-1.06c.36-.25.71-.52,1.09-.75C215.82,139.47,219,137.8,220.45,134Z" transform="translate(-7.4 -17.84)"/><path class="cls-1" d="M101.2,148.07l1.59,1.83c-.49.35-1,1-1.46,1a2.33,2.33,0,0,1-1.41-1.25C99.82,149.41,100.59,148.78,101.2,148.07Z" transform="translate(-7.4 -17.84)"/><path class="cls-1" d="M207.39,147.91a24.92,24.92,0,0,1,1.71,2.17s-.82.9-1,.81a13.63,13.63,0,0,1-2.16-1.35Z" transform="translate(-7.4 -17.84)"/><path class="cls-1" d="M175.45,96.23A2.22,2.22,0,0,1,173,97.56c-.8,0-1.83,0-1.83-.63.25-1.17,2.42-2.61,3.22-2.64C175.57,94.25,175.7,95.18,175.45,96.23Z" transform="translate(-7.4 -17.84)"/><path class="cls-1" d="M100.53,85.91c-1,.34-1.5.72-1.94.63s-.83-.66-1.24-1c.43-.3.89-.88,1.28-.84S99.63,85.29,100.53,85.91Z" transform="translate(-7.4 -17.84)"/><path class="cls-1" d="M211.92,85.49c-.86.52-1.34,1-1.87,1.07s-.83-.44-1.25-.69a6,6,0,0,1,1.47-1.22C210.56,84.54,211.1,85.05,211.92,85.49Z" transform="translate(-7.4 -17.84)"/><path d="M185.48,124.44a7.71,7.71,0,0,1-8-8.12,5.91,5.91,0,0,1,5.87-5.84c3.8-.24,7.85,1.94,8.82,4.65C194,120.33,190.72,124.67,185.48,124.44Z" transform="translate(-7.4 -17.84)"/><path d="M113.53,124.8a7.74,7.74,0,0,1-8.11-7.89,5.91,5.91,0,0,1,6-6.07c4.06-.23,8,2,8.79,5.12C121.62,121.14,118.94,124.68,113.53,124.8Z" transform="translate(-7.4 -17.84)"/><path d="M108.47,115.16c1.16.85,2.12,2.22,3.57,1a2.25,2.25,0,0,0-.25-2.15C110.37,112.73,109.45,113.89,108.47,115.16Z" transform="translate(-7.4 -17.84)"/><path class="cls-1" d="M181.67,116.16a1.5,1.5,0,0,1-.34-2.4,1.58,1.58,0,0,1,1.77-.49,1.75,1.75,0,0,1,1.13,1.75,1.34,1.34,0,0,1-.78,1.17A1.76,1.76,0,0,1,181.67,116.16Z" transform="translate(-7.4 -17.84)"/><path class="cls-1" d="M220.87,233.42" transform="translate(-7.4 -17.84)"/><path d="M134.49,95.23c.74-.56,1.14-1,1.28-.94.8.39,1.64,1.18,2.39,1.64-.25.27-.58.8-.74.75C136.6,96.43,135.71,95.76,134.49,95.23Z" transform="translate(-7.4 -17.84)"/><path class="cls-1" d="M134,95.28c.52,1.47,2.83,1.75,3.69,1.75s1.17-.7,1.17-1.44a3.46,3.46,0,0,0-2.89-2.21C134.61,93.33,133.68,94.11,134,95.28Z" transform="translate(-7.4 -17.84)"/><path class="cls-1" d="M165.52,97c.21,1.56-.2,2.68-1.56,2.5-1.65-.22-3.2,1.21-4.74-.07a2.24,2.24,0,0,1-.58-1.26c-.38-2.05,1.18-3.67,3.8-4C164.52,93.9,165.49,94.73,165.52,97Z" transform="translate(-7.4 -17.84)"/><path d="M162.44,94.16c-3.59.47-4.18,4.83-3.85,5.1,1.53,1.28,5,.53,6.08-.71C166,97.05,164.52,93.88,162.44,94.16Z" transform="translate(-7.4 -17.84)"/><path class="cls-2" d="M161,95.86c-.71.59-1.47,2-.88,2.68s2.31.45,3-.14A1.66,1.66,0,0,0,161,95.86Z" transform="translate(-7.4 -17.84)"/><path class="cls-1" d="M136.94,99.73c-2.17-.07-3.32-.46-4.4-2.28a4.55,4.55,0,0,1-.45-3.21,2.85,2.85,0,0,1,2.32-1.17,14.36,14.36,0,0,1,4.25,1.15c1.84.67,2.47,1.92,2,3.65S138.94,99.83,136.94,99.73Z" transform="translate(-7.4 -17.84)"/><path d="M137.93,99.6c4.3.48,1.89-3.26.32-4.82-1.25-1.24-2.07-2.26-4-2.27a2.56,2.56,0,0,0-2.16,1.73,4.55,4.55,0,0,0,.45,3.21C133.62,99.27,135.76,99.54,137.93,99.6Z" transform="translate(-7.4 -17.84)"/><path d="M134.25,96.22c.75-.55,1.14-1,1.29-.93a28.94,28.94,0,0,1,2.39,1.64c-.25.26-.59.79-.75.74C136.36,97.42,135.48,96.75,134.25,96.22Z" transform="translate(-7.4 -17.84)"/><path class="cls-1" d="M134,96.25a2.54,2.54,0,0,0,2.55,1.58c.79,0,1.82,0,1.82-.63-.25-1.17-2.51-2.86-3.3-2.89C133.84,94.26,133.71,95.2,134,96.25Z" transform="translate(-7.4 -17.84)"/><path class="cls-1" d="M145.06,97c-.21,1.57.21,2.68,1.56,2.5,1.65-.22,3.21,1.21,4.74-.07a2.21,2.21,0,0,0,.58-1.25c.38-2.06-1.18-3.68-3.79-4C146.06,93.9,145.1,94.73,145.06,97Z" transform="translate(-7.4 -17.84)"/><path d="M148.15,94.16c3.58.48,4.17,4.84,3.85,5.11-1.53,1.27-5,.52-6.09-.72C144.57,97.05,146.06,93.88,148.15,94.16Z" transform="translate(-7.4 -17.84)"/><path class="cls-2" d="M149.59,95.86c.7.59,1.46,2,.87,2.68s-2.31.45-3-.14a1.66,1.66,0,0,1,2.14-2.54Z" transform="translate(-7.4 -17.84)"/><path d="M158.16,134.05c.23,3.09,4.16,1,4.47-.15C163,132,158.16,132.8,158.16,134.05Z" transform="translate(-7.4 -17.84)"/><path class="cls-1" d="M169.74,134.56c-.48-.55-3.41,2.41-2.89,3.16a2.12,2.12,0,0,0,2.22.85C170.19,138.43,170.62,135.58,169.74,134.56Z" transform="translate(-7.4 -17.84)"/><path class="cls-1" d="M109.59,117.1a1.6,1.6,0,0,1-.38-2.61,1.56,1.56,0,0,1,1.64-.37,1.76,1.76,0,0,1,1.13,1.75,1.34,1.34,0,0,1-.78,1.17A1.74,1.74,0,0,1,109.59,117.1Z" transform="translate(-7.4 -17.84)"/><path class="cls-1" d="M92.72,110.58a2.13,2.13,0,0,1-.53-3.56,2.22,2.22,0,0,1,2.32-.49,2.38,2.38,0,0,1,1.6,2.38,1.85,1.85,0,0,1-1.11,1.6A2.52,2.52,0,0,1,92.72,110.58Z" transform="translate(-7.4 -17.84)"/><path class="cls-1" d="M213.78,110.58a2.14,2.14,0,0,1-.53-3.56,2.23,2.23,0,0,1,2.32-.49,2.38,2.38,0,0,1,1.6,2.38,1.86,1.86,0,0,1-1.1,1.6A2.54,2.54,0,0,1,213.78,110.58Z" transform="translate(-7.4 -17.84)"/><circle class="cls-1" cx="131.62" cy="135.33" r="0.93"/><ellipse cx="124.21" cy="140.58" rx="2.14" ry="1.88"/><ellipse cx="134.21" cy="145.05" rx="2.14" ry="1.88"/><ellipse cx="122.36" cy="148.83" rx="2.14" ry="1.88"/><ellipse cx="166.96" cy="140.58" rx="2.14" ry="1.88"/><ellipse cx="156.95" cy="145.05" rx="2.14" ry="1.88"/><ellipse cx="168.81" cy="148.83" rx="2.14" ry="1.88"/><circle class="cls-1" cx="124.21" cy="140.58" r="0.69"/><circle class="cls-1" cx="122.36" cy="148.83" r="0.69"/><circle class="cls-1" cx="134.21" cy="145.05" r="0.69"/><circle class="cls-1" cx="156.95" cy="145.05" r="0.69"/><circle class="cls-1" cx="166.96" cy="140.58" r="0.69"/><circle class="cls-1" cx="168.81" cy="148.83" r="0.69"/><path class="cls-1" d="M282,224c-2.19-2.92-4.48-5.76-6.68-8.68a6.61,6.61,0,0,1-.53-2,12.4,12.4,0,0,1,1.36.57c3.46,2.29,7.38-1,7.74-3.9a9.68,9.68,0,0,0-6-10.22c-3.45-1.43-4.05-5.43-1.11-8.21a3.58,3.58,0,0,1,.33,1.19c-.27,2.73,1.16,4.07,3.54,5.11,4.18,1.83,5.84,5.47,6.09,9.82.16,2.83.75,3.21,3.24,1.77,1.85-1.07,3.67-.87,5.82-.26-2,1.24-3.7,2.25-5.36,3.38-1.47,1-2.84,2.15-4.28,3.2-1,.71-2,1.33-3,2s-1.29,1.59-.28,2.65c3.34,3.51,4.13,8,4.53,12.25-2.61-1.39-5.26-3-8.05-4.26" transform="translate(-7.4 -17.84)"/><path d="M228.3,150.54a6.7,6.7,0,0,0,.53,2c2.2,2.92,4.49,5.76,6.68,8.68.45.6,1.64,2,1.59,2.83-.07,1.41-12.42-6-12-.4.2,2.59,1.93,17-9.27,15.08-2.77-.47-16.62-1.95-9.07-8.86a4.21,4.21,0,0,0-4.35,4,.66.66,0,0,1-.69.62c-5.28-.67-7.81,1.68-8.92,6.34-.65,2.72,3.53,6.62,2.92,5.65-1.89-3,.71-12.21,6.64-7.51a1.13,1.13,0,0,1,.19,1.58,3.65,3.65,0,0,0-.83,1.46c-.78,4.09,3.31,3.55,4.4,3a3.53,3.53,0,0,0,1.72-2.81c.12-2.75,1.27-1.75,2.42-1.47A31.33,31.33,0,0,0,217,182c10.07.23,12.39-10.67,11.65-14.12-.91-4.23,1.48-3.52,4.3-2.21,2.07,1,4.06,2.07,6,3.15a1.2,1.2,0,0,0,1.77-1.23c-.5-3.53-1.53-7-4.26-9.91-1-1-.8-1.88.28-2.65s2-1.31,3-2c1.44-1.05,2.81-2.2,4.28-3.2s3.12-2,4.9-3.1a.23.23,0,0,0-.05-.42,6.61,6.61,0,0,0-5.31.4c-2.49,1.44-3.08,1.05-3.24-1.77-.25-4.35-1.91-8-6.09-9.82-2.38-1-3.81-2.39-3.54-5.12a3.47,3.47,0,0,0-.33-1.18c-2.94,2.77-2.34,6.78,1.11,8.2a9.69,9.69,0,0,1,6,10.23c-.36,2.92-4.28,6.19-7.74,3.9A10.65,10.65,0,0,0,228.3,150.54Z" transform="translate(-7.4 -17.84)"/><ellipse cx="197.38" cy="164.8" rx="2.14" ry="1.88"/><circle class="cls-1" cx="197.38" cy="164.8" r="0.69"/><ellipse cx="96.19" cy="164.47" rx="2.14" ry="1.88"/><circle class="cls-1" cx="96.19" cy="164.47" r="0.69"/><ellipse cx="91.19" cy="68" rx="2.14" ry="1.88"/><circle class="cls-1" cx="91.19" cy="68" r="0.69"/><ellipse cx="202.64" cy="68.02" rx="2.14" ry="1.88"/><circle class="cls-1" cx="202.64" cy="68.02" r="0.69"/><path class="cls-1" d="M251.62,224.11c0,5-3,6.72-6.76,8.24a1.52,1.52,0,0,1-1.37-.49c-.21-.28,0-1,.17-1.39.51-1.24,1.56-2.44,1.56-3.66,0-2.83,1.82-3.95,3.86-5,1.36-.7,2.08-.34,2.42,1.16A6.41,6.41,0,0,1,251.62,224.11Z" transform="translate(-7.4 -17.84)"/><path d="M171.65,191.62a6.41,6.41,0,0,0-.12-1.15c-.33-1.5-1.05-1.86-2.41-1.16-2.05,1.06-3.87,2.17-3.87,5,0,1.21-1.05,2.42-1.55,3.65-.18.44-.38,1.11-.18,1.39a1.56,1.56,0,0,0,1.38.5C168.64,198.34,171.65,196.58,171.65,191.62Z" transform="translate(-7.4 -17.84)"/></svg>